<svg width="30" height="22" viewBox="0 0 30 22" fill="none" xmlns="http://www.w3.org/2000/svg">
<path d="M29.0803 19.8919C29.0176 20.0713 28.9784 20.2581 28.9 20.4301C28.469 21.3794 27.7244 21.9176 26.6271 21.9923C26.5173 21.9998 26.4076 21.9998 26.2979 21.9998C18.7735 21.9998 11.2492 21.9998 3.7248 21.9998C2.57263 21.9998 1.70263 21.5662 1.20101 20.5646C1.04425 20.2507 0.958033 19.8769 0.958033 19.5331C0.950195 15.0631 0.950195 10.5857 0.950195 6.10823C0.950195 4.69548 2.07885 3.62657 3.56021 3.61162C4.44589 3.60415 5.3394 3.60415 6.22508 3.61162C6.57779 3.61162 6.85995 3.4995 7.10292 3.2603C7.85536 2.53524 8.62347 1.81765 9.36807 1.09259C9.94023 0.539452 10.6143 0.277832 11.4138 0.277832C13.82 0.285307 16.2262 0.285307 18.6403 0.277832C19.4397 0.277832 20.0981 0.539452 20.6546 1.07764C21.407 1.8027 22.1751 2.52029 22.9197 3.24535C23.1706 3.49202 23.4606 3.61162 23.8211 3.60415C24.6441 3.5892 25.4671 3.60415 26.29 3.60415C27.7635 3.60415 28.6963 4.31426 29.0333 5.68216C29.0333 5.70458 29.0568 5.72701 29.0725 5.74943V19.8994L29.0803 19.8919ZM14.9957 20.4301C18.7892 20.4301 22.5749 20.4301 26.3684 20.4301C27.0738 20.4301 27.4344 20.0788 27.4344 19.4135C27.4344 15.0033 27.4344 10.5931 27.4344 6.18298C27.4344 5.52519 27.0581 5.16639 26.3606 5.16639C25.5219 5.16639 24.6754 5.15892 23.8368 5.16639C23.0216 5.18134 22.3397 4.91225 21.7676 4.35163C21.0151 3.6191 20.2549 2.90898 19.5024 2.18392C19.2673 1.9522 18.993 1.84008 18.6481 1.84008C16.234 1.84008 13.8121 1.84008 11.3981 1.84008C11.0532 1.84008 10.7867 1.9522 10.5437 2.18392C9.78347 2.91646 9.01536 3.64152 8.25509 4.37406C7.6986 4.91225 7.03238 5.18134 6.24076 5.16639C5.40994 5.15892 4.57129 5.16639 3.74048 5.16639C2.95669 5.16639 2.60399 5.50276 2.60399 6.25772C2.60399 10.6156 2.60399 14.9734 2.60399 19.3313C2.60399 20.1236 2.93318 20.4375 3.77183 20.4375C7.51833 20.4375 11.257 20.4375 15.0035 20.4375L14.9957 20.4301Z" fill="#EDEFF0"/>
<path d="M21.1329 11.9762C21.1329 15.2054 18.3818 17.8141 14.988 17.8066C11.6177 17.7991 8.89013 15.1755 8.89797 11.9538C8.91364 8.73213 11.6647 6.1234 15.0272 6.13088C18.4053 6.14583 21.1329 8.76203 21.1329 11.9762ZM19.4869 11.9762C19.4869 9.62164 17.4961 7.70807 15.0272 7.7006C12.5661 7.7006 10.5596 9.60669 10.5518 11.9613C10.5518 14.3159 12.5426 16.2294 15.0115 16.2294C17.4804 16.2294 19.4791 14.3308 19.4869 11.9762Z" fill="#EDEFF0"/>
</svg>
