<svg width="12" height="11" viewBox="0 0 12 11" fill="none" xmlns="http://www.w3.org/2000/svg">
<path d="M7.60946 2.43012C7.64477 2.47494 7.66921 2.50753 7.69365 2.54012C7.82538 2.71123 7.99784 2.76962 8.1866 2.70851C8.37129 2.64876 8.48536 2.49531 8.48672 2.2821C8.49079 1.88965 8.48672 1.49855 8.48672 1.10609C8.48672 1.0572 8.48672 1.00831 8.48672 0.952637H9.34768V1.27584C9.42101 1.27584 9.48755 1.27584 9.55409 1.27584C9.89087 1.27584 10.229 1.27041 10.5658 1.2772C10.9936 1.2867 11.2855 1.61669 11.2326 2.03495C10.9433 4.35032 9.63557 5.84546 7.49675 6.67111C7.43156 6.69692 7.3691 6.7363 7.31206 6.77975C7.22515 6.84629 7.14774 6.92506 7.06083 6.99024C6.45653 7.44245 6.16999 8.0549 6.14827 8.80044C6.14283 8.99055 6.14827 9.18067 6.14827 9.38708C6.29493 9.38708 6.4253 9.38708 6.55566 9.38708C6.82047 9.38708 7.08392 9.38301 7.34873 9.38708C7.75341 9.39523 8.08475 9.68992 8.10241 10.0579H3.1023C3.16341 9.92621 3.20144 9.80127 3.27341 9.69942C3.42415 9.4835 3.64686 9.38708 3.90895 9.38573C4.25116 9.38437 4.59201 9.38573 4.93423 9.38573C4.98311 9.38573 5.03064 9.38573 5.08089 9.38573C5.16237 8.42427 4.98176 7.58368 4.17104 6.97666C3.96734 6.82457 3.77179 6.68062 3.52871 6.58284C1.80135 5.87941 0.641634 4.65451 0.147327 2.83888C0.0712798 2.55913 0.0346141 2.26717 0.00338047 1.97927C-0.0360011 1.60311 0.27362 1.28534 0.675583 1.27855C1.02594 1.27176 1.37766 1.2772 1.72802 1.2772C1.77691 1.2772 1.82716 1.2772 1.88826 1.2772V0.953995H6.72269C6.72541 1.00288 6.73084 1.05041 6.73084 1.09794C6.73084 1.47139 6.73084 1.84483 6.73084 2.21828C6.73084 2.48852 6.82862 2.64604 7.03231 2.71123C7.2333 2.77505 7.39626 2.70851 7.55786 2.49531C7.57144 2.47765 7.58637 2.46 7.6081 2.43148L7.60946 2.43012ZM7.107 3.63737C7.08935 3.51244 7.03639 3.4554 6.93726 3.44047C6.72134 3.40787 6.50677 3.36849 6.2895 3.34405C6.18086 3.33183 6.11839 3.27887 6.07358 3.18517C5.98667 3.00048 5.90111 2.81308 5.79926 2.63654C5.76396 2.57543 5.68112 2.5021 5.62137 2.50346C5.56026 2.50346 5.48149 2.57815 5.44483 2.64061C5.3457 2.81308 5.2615 2.9964 5.17731 3.17702C5.13113 3.27615 5.06731 3.33454 4.95188 3.34677C4.74818 3.36985 4.54448 3.39701 4.34486 3.43911C4.27425 3.45405 4.17375 3.50972 4.16153 3.56404C4.14659 3.62923 4.19277 3.72836 4.24437 3.78539C4.38153 3.93749 4.54177 4.06786 4.67757 4.21995C4.72645 4.27563 4.75769 4.3734 4.7509 4.44809C4.73053 4.65586 4.67893 4.86092 4.65584 5.06869C4.64769 5.13931 4.66942 5.24523 4.71695 5.28189C4.76448 5.31856 4.87312 5.30905 4.9383 5.28054C5.12842 5.19498 5.3131 5.09449 5.49507 4.99264C5.5847 4.9424 5.66347 4.94511 5.75173 4.99264C5.93099 5.09042 6.11432 5.18412 6.29493 5.28054C6.37505 5.32399 6.46739 5.36337 6.53122 5.28461C6.57467 5.23029 6.59504 5.13659 6.5869 5.06462C6.56517 4.86092 6.5285 4.65994 6.48776 4.45896C6.46739 4.35711 6.49184 4.28378 6.56517 4.21452C6.71726 4.07057 6.868 3.92527 7.01466 3.77589C7.05676 3.73379 7.08256 3.6754 7.10565 3.64009L7.107 3.63737ZM3.07922 5.71917C2.93527 5.41769 2.79133 5.14338 2.67046 4.86092C2.27936 3.94564 2.06073 2.9869 1.95752 1.99964C1.94802 1.9073 1.92629 1.86385 1.82037 1.8652C1.4605 1.87199 1.10063 1.86928 0.740767 1.86656C0.629412 1.86656 0.585956 1.90187 0.598178 2.02001C0.702743 2.99505 1.07619 3.85329 1.70901 4.59883C2.09196 5.04968 2.54281 5.42041 3.0765 5.71917H3.07922ZM8.15537 5.72052C8.19475 5.70151 8.21105 5.69608 8.22463 5.68793C9.61249 4.84327 10.4504 3.63873 10.6446 2.00915C10.6581 1.89372 10.6052 1.86656 10.5047 1.86656C10.1407 1.86792 9.7768 1.87063 9.41151 1.86656C9.32052 1.86656 9.29472 1.90323 9.28793 1.98471C9.27435 2.13816 9.25534 2.29297 9.23225 2.44506C9.06522 3.55997 8.76103 4.63006 8.20426 5.61868C8.18932 5.64448 8.17845 5.67164 8.15537 5.72188V5.72052Z" fill="#00FFCF"/>
</svg>
