<svg width="14" height="14" viewBox="0 0 14 14" fill="none" xmlns="http://www.w3.org/2000/svg">
<path d="M0 10.4463C0 7.32985 0 4.2134 0 1.09695C0.0075826 1.07926 0.0176927 1.06409 0.0202203 1.0464C0.133959 0.429681 0.596498 0.0126377 1.22333 0.0075826C2.63622 -0.00252753 4.04658 -0.00252753 5.45947 0.0075826C6.06355 0.0126377 6.53367 0.404405 6.64994 0.993321C6.71818 1.33201 6.74599 1.67828 6.78896 2.0195C6.91533 3.02293 7.03918 4.02383 7.16303 5.02726C7.28435 6.01047 7.40567 6.99621 7.52952 7.97942C7.65843 9.01824 7.78986 10.0571 7.91623 11.0959C7.94151 11.2905 7.76458 11.5382 7.60535 11.5382C5.48728 11.5382 3.3692 11.5382 1.25113 11.5382C0.851779 11.5382 0.520672 11.3815 0.265391 11.0655C0.118794 10.881 0.0530782 10.6662 0 10.4463ZM4.2867 6.2152C4.37263 6.64489 4.45604 7.06951 4.54198 7.49161C4.59253 7.73931 4.80484 7.89096 5.02726 7.84294C5.25727 7.79491 5.39628 7.58007 5.34826 7.33743C5.08034 6.00036 4.81242 4.6633 4.54451 3.32371C4.4889 3.05073 4.34483 2.93194 4.07186 2.92941C3.82921 2.92941 3.5891 2.92941 3.34645 2.92941C3.07095 2.92941 2.92688 3.04821 2.87128 3.31865C2.80303 3.64723 2.73985 3.97834 2.6716 4.30944C2.4694 5.31793 2.2672 6.32389 2.06499 7.33237C2.02203 7.55227 2.1206 7.74689 2.31522 7.82019C2.56545 7.91623 2.81314 7.76964 2.87128 7.4815C2.95721 7.0594 3.04062 6.6373 3.12656 6.21268H4.2867V6.2152Z" fill="#00FFCF"/>
<path d="M12.9055 13.9999H6.64478C6.66752 13.9721 6.68774 13.9418 6.71049 13.914C7.26908 13.2771 7.82261 12.6376 8.38372 12.0007C8.64153 11.7075 8.7679 11.3688 8.72999 10.9846C8.66933 10.4058 8.59098 9.82697 8.51768 9.2507C8.39383 8.26243 8.26998 7.27164 8.14613 6.28337C8.03239 5.36588 7.91612 4.45091 7.80239 3.53342C7.75942 3.1922 7.71898 2.84845 7.67601 2.49966C7.71392 2.4946 7.7392 2.48955 7.767 2.48955C9.42506 2.48955 11.0831 2.48449 12.7412 2.4946C12.9257 2.4946 13.1254 2.54262 13.2922 2.6235C13.7699 2.85856 13.9923 3.26803 13.9974 3.79628C14.0024 4.62531 13.9974 5.45434 13.9974 6.28337C13.9974 8.41914 13.9974 10.5549 13.9974 12.6932C13.9974 13.1305 13.8533 13.5045 13.4868 13.7522C13.3149 13.8685 13.1001 13.9191 12.9055 13.9974V13.9999ZM11.1033 9.4251C11.1438 9.45796 11.1817 9.48829 11.2196 9.51862C11.5077 9.74862 11.7934 9.98115 12.0866 10.2061C12.2938 10.3653 12.539 10.335 12.6805 10.1505C12.8246 9.96093 12.7867 9.72082 12.587 9.55906C12.4758 9.47059 12.3621 9.38718 12.2508 9.30125C12.0562 9.14707 11.8616 8.99036 11.6821 8.84376C11.8818 8.54046 12.084 8.26496 12.2483 7.96671C12.4126 7.67099 12.5365 7.35252 12.6831 7.03152C12.6881 7.03152 12.7109 7.03152 12.7336 7.029C13.0015 7.01889 13.181 6.84954 13.1759 6.60942C13.1709 6.37184 12.9864 6.21007 12.7184 6.20755C12.5718 6.20755 12.4278 6.20755 12.2812 6.20755C12.0284 6.20755 11.7731 6.20755 11.5103 6.20755C11.5103 6.07359 11.5103 5.95732 11.5103 5.83853C11.5077 5.57314 11.3409 5.38863 11.1008 5.38863C10.8607 5.38863 10.6939 5.57314 10.6888 5.83853C10.6888 5.95985 10.6888 6.08117 10.6888 6.21007C10.2743 6.21007 9.87749 6.21007 9.4832 6.21007C9.2355 6.21007 9.05604 6.37942 9.05099 6.60942C9.04593 6.8369 9.2178 7.01889 9.46297 7.02647C9.54638 7.02647 9.57924 7.05427 9.60452 7.13262C9.75111 7.59011 9.96343 8.01726 10.2288 8.41661C10.3198 8.55563 10.426 8.68706 10.5271 8.82607C10.479 8.86651 10.4386 8.90442 10.3982 8.93981C10.1404 9.1496 9.88255 9.35938 9.62726 9.57169C9.49331 9.68291 9.43265 9.82445 9.47561 9.99632C9.51605 10.1606 9.62726 10.2642 9.79155 10.3022C9.93562 10.335 10.0595 10.2794 10.1707 10.1884C10.479 9.93566 10.7899 9.68291 11.1059 9.4251H11.1033Z" fill="#00FFCF"/>
<path d="M6.94057 12.3647C6.48814 12.8627 6.05593 13.3404 5.61867 13.8156C5.59592 13.8383 5.52515 13.8459 5.49482 13.8282C5.17635 13.6513 4.96404 13.3884 4.88568 13.0295C4.84019 12.8146 4.81997 12.5922 4.78711 12.3647H6.93804H6.94057Z" fill="#00FFCF"/>
<path d="M3.61682 3.75342H3.79375C3.90243 4.29178 4.01112 4.83267 4.1198 5.38368H3.29077C3.39946 4.84026 3.50561 4.30189 3.61682 3.75342Z" fill="#00FFCF"/>
<path d="M11.1009 8.21192C10.8102 7.84796 10.5928 7.46377 10.4336 7.03662H11.7909C11.6316 7.47388 11.3915 7.84796 11.1009 8.21192Z" fill="#00FFCF"/>
</svg>
