<svg width="14" height="14" viewBox="0 0 14 14" fill="none" xmlns="http://www.w3.org/2000/svg">
<path d="M4.15258 11.5605C3.81782 11.848 3.48881 12.1285 3.1621 12.4103C2.88946 12.6437 2.74567 12.6402 2.49488 12.3907C2.18543 12.0814 1.87598 11.7732 1.56768 11.4628C1.37211 11.2661 1.36406 11.1005 1.54352 10.8901C1.81271 10.5727 2.08305 10.2554 2.35799 9.94259C2.42126 9.87129 2.42586 9.82185 2.37639 9.74136C2.10836 9.30439 1.91394 8.83409 1.79085 8.33618C1.76554 8.23269 1.71723 8.20394 1.6229 8.19704C1.20186 8.16715 0.78197 8.1361 0.362082 8.0993C0.1136 8.07745 0.00201316 7.95097 0.000862784 7.70029C-0.000287595 7.23228 -0.000287595 6.76312 0.000862784 6.29511C0.000862784 6.04559 0.1136 5.92025 0.364382 5.8984C0.779669 5.8616 1.19496 5.83055 1.61024 5.80181C1.71838 5.79491 1.76899 5.75926 1.7966 5.64427C1.91739 5.15671 2.10721 4.69561 2.37064 4.26784C2.42816 4.1747 2.41781 4.12066 2.34764 4.04131C2.0773 3.73774 1.81616 3.42727 1.55272 3.11795C1.36061 2.89257 1.36866 2.73388 1.57918 2.5223C1.89899 2.20148 2.21879 1.88066 2.5409 1.56214C2.73071 1.37355 2.89752 1.3655 3.10228 1.53799C3.452 1.83351 3.79711 2.13248 4.12382 2.41306C4.50114 2.24402 4.86006 2.07959 5.22243 1.9255C5.35012 1.87031 5.48702 1.82776 5.62506 1.80476C5.76311 1.78177 5.79762 1.70702 5.80567 1.58398C5.83213 1.17347 5.86319 0.764107 5.90001 0.354743C5.92071 0.115565 6.04955 0.00287474 6.28998 0.00172485C6.76394 -0.000574949 7.2379 -0.000574949 7.71185 0.00172485C7.95113 0.00172485 8.07997 0.116715 8.10068 0.355893C8.13749 0.771006 8.1697 1.18612 8.19616 1.60123C8.20421 1.71622 8.24218 1.76797 8.36182 1.79786C8.88524 1.9278 9.37415 2.14168 9.84005 2.43146C9.87341 2.40731 9.90677 2.38546 9.93783 2.36016C10.2588 2.08649 10.5774 1.81051 10.8984 1.53799C11.0974 1.36895 11.2688 1.37355 11.4494 1.55179C11.7865 1.88526 12.1213 2.21988 12.4549 2.5568C12.6228 2.72698 12.6309 2.89832 12.4756 3.08345C12.1776 3.43762 11.8739 3.78834 11.5748 4.13791C11.6991 4.38858 11.8337 4.62891 11.9395 4.88189C12.0419 5.12567 12.127 5.37749 12.1972 5.63277C12.2317 5.75696 12.2869 5.79721 12.4077 5.80526C12.8184 5.8317 13.2279 5.86275 13.6375 5.89955C13.8859 5.9214 13.9975 6.04903 13.9987 6.29856C13.9998 6.76657 14.001 7.23573 13.9987 7.70374C13.9987 7.95212 13.8848 8.0786 13.6352 8.1016C13.2199 8.1384 12.8046 8.16945 12.3893 8.19819C12.2823 8.20509 12.2305 8.24074 12.2018 8.35573C12.0821 8.84329 11.8912 9.30324 11.6277 9.73216C11.5702 9.8253 11.5817 9.87934 11.6519 9.95869C11.9211 10.2623 12.1834 10.5727 12.4468 10.8821C12.6378 11.1074 12.6297 11.2684 12.4192 11.4789C12.1028 11.7962 11.7865 12.1124 11.469 12.4287C11.2665 12.631 11.102 12.6368 10.8834 12.4505C10.5395 12.1573 10.1967 11.8629 9.89067 11.6007C9.40981 11.7962 8.96346 11.9906 8.50791 12.1596C8.20766 12.2711 8.20651 12.255 8.18466 12.5724C8.1605 12.9312 8.13174 13.2888 8.09953 13.6464C8.07767 13.8833 7.94883 13.9971 7.7084 13.9983C7.23444 14.0006 6.76049 14.0006 6.28653 13.9983C6.0484 13.9983 5.91956 13.8821 5.89885 13.6418C5.86204 13.2267 5.82983 12.8116 5.80337 12.3965C5.79647 12.2803 5.75506 12.2274 5.63772 12.1987C5.1143 12.0699 4.62539 11.8537 4.15258 11.5616V11.5605ZM4.00073 6.99195C3.99843 8.6478 5.33977 9.99548 6.99402 9.99778C8.65056 10.0001 9.99765 8.6593 10.0011 7.00575C10.0034 5.3499 8.66321 4.00222 7.00782 3.99992C5.35127 3.99762 4.00418 5.3384 4.00073 6.99195Z" fill="#00FFCF"/>
</svg>
