<svg width="14" height="14" viewBox="0 0 14 14" fill="none" xmlns="http://www.w3.org/2000/svg">
<path d="M3.29225 6.75483C3.29225 6.23925 3.2519 5.72143 3.29897 5.21033C3.44692 3.61203 4.62603 2.30963 6.19967 1.95545C8.36063 1.47125 10.4902 3.0023 10.7054 5.20809C10.748 5.63177 10.7323 6.06216 10.7323 6.49032C10.7323 7.11126 10.7525 7.73668 10.7009 8.35538C10.5687 9.94919 9.25505 11.3413 7.67468 11.608C5.63702 11.951 3.76299 10.6889 3.35053 8.67145C3.27431 8.30382 3.28776 7.91825 3.27207 7.54166C3.26086 7.27938 3.27207 7.01711 3.27207 6.75483C3.2788 6.75483 3.28776 6.75483 3.29449 6.75483H3.29225Z" fill="#00FFCF"/>
<path d="M1.4742 4.67023C1.87321 2.0206 4.3211 -0.0484529 7.09403 0.000863521C9.87592 0.0501799 12.131 2.14389 12.5211 4.65678C12.7004 4.66799 12.882 4.66575 13.0568 4.69489C13.5926 4.79128 13.9916 5.25754 13.9961 5.80227C14.0028 6.6003 14.005 7.39608 13.9961 8.19411C13.9894 8.81729 13.4827 9.31718 12.8596 9.33287C12.7475 9.33512 12.6376 9.33287 12.5435 9.33287C12.4314 9.70499 12.3552 10.0749 12.2117 10.4156C11.3218 12.5227 9.74142 13.722 7.46166 13.9776C7.31819 13.9933 7.17024 13.9978 7.02454 14C6.74881 14 6.54034 13.805 6.53361 13.5472C6.52689 13.2804 6.73088 13.072 7.01333 13.0697C7.85619 13.0607 8.65198 12.8612 9.36931 12.4174C10.8264 11.514 11.6065 10.1959 11.658 8.47656C11.6872 7.49472 11.6737 6.51287 11.6625 5.53103C11.6334 3.15263 9.79522 1.17325 7.42355 0.95805C4.91514 0.731643 2.669 2.53842 2.36862 5.03114C2.34396 5.24185 2.33499 5.45705 2.33499 5.67001C2.33051 6.71014 2.33499 7.75027 2.33499 8.79039C2.33499 9.15578 2.15566 9.33512 1.78803 9.33287C1.50782 9.33063 1.22089 9.34632 0.945167 9.30373C0.40717 9.22303 0.0103974 8.74556 0.00591407 8.20084C-0.000810898 7.40281 -0.00305255 6.60702 0.00591407 5.80899C0.012639 5.18581 0.521495 4.68592 1.14467 4.67023C1.25676 4.66799 1.3666 4.67023 1.47644 4.67023H1.4742Z" fill="#00FFCF"/>
</svg>
