<svg width="22" height="21" viewBox="0 0 22 21" fill="none" xmlns="http://www.w3.org/2000/svg">
<path fill-rule="evenodd" clip-rule="evenodd" d="M8.78935 3.03502C8.78934 3.03503 8.78934 3.03503 8.78933 3.03503L3.34063 6.25486C2.28151 6.88072 1.63462 8.00055 1.63462 9.20811V15.8941C1.63462 17.8012 3.22028 19.3473 5.17628 19.3473H16.0737C18.0297 19.3473 19.6154 17.8012 19.6154 15.8941V9.20811C19.6154 8.00055 18.9685 6.88073 17.9094 6.25486L18.333 5.57334L17.9094 6.25486L12.4607 3.03503C12.4607 3.03503 12.4606 3.03503 12.4606 3.03502C11.3324 2.3683 9.91765 2.3683 8.78935 3.03502ZM7.94213 1.67199C9.59116 0.697555 11.6588 0.697553 13.3079 1.67199L13.3079 1.67199L18.7566 4.89183C20.3046 5.80656 21.25 7.44324 21.25 9.20811V15.8941C21.25 18.6815 18.9325 20.9412 16.0737 20.9412H5.17628C2.31749 20.9412 0 18.6815 0 15.8941V9.20811C0 7.44323 0.945459 5.80656 2.4934 4.89183L2.91702 5.57334L2.4934 4.89183L7.94212 1.67199L7.94213 1.67199Z" fill="#7C8792"/>
<path fill-rule="evenodd" clip-rule="evenodd" d="M6.25 16.5662C6.25 16.221 6.64175 15.9412 7.125 15.9412H14.125C14.6082 15.9412 15 16.221 15 16.5662C15 16.9113 14.6082 17.1912 14.125 17.1912H7.125C6.64175 17.1912 6.25 16.9113 6.25 16.5662Z" fill="#7C8792"/>
</svg>
