<svg width="26" height="25" viewBox="0 0 26 25" fill="none" xmlns="http://www.w3.org/2000/svg">
<g filter="url(#filter0_d_509_213)">
<path fill-rule="evenodd" clip-rule="evenodd" d="M10.7893 5.03502C10.7893 5.03503 10.7893 5.03503 10.7893 5.03503L5.34063 8.25486C4.28151 8.88072 3.63462 10.0006 3.63462 11.2081V17.8941C3.63462 19.8012 5.22028 21.3473 7.17628 21.3473H18.0737C20.0297 21.3473 21.6154 19.8012 21.6154 17.8941V11.2081C21.6154 10.0005 20.9685 8.88073 19.9094 8.25486L20.333 7.57334L19.9094 8.25486L14.4607 5.03503C14.4607 5.03503 14.4606 5.03503 14.4606 5.03502C13.3324 4.3683 11.9177 4.3683 10.7893 5.03502ZM9.94213 3.67199C11.5912 2.69755 13.6588 2.69755 15.3079 3.67199L15.3079 3.67199L20.7566 6.89183C22.3046 7.80656 23.25 9.44324 23.25 11.2081V17.8941C23.25 20.6815 20.9325 22.9412 18.0737 22.9412H7.17628C4.31749 22.9412 2 20.6815 2 17.8941V11.2081C2 9.44323 2.94546 7.80656 4.4934 6.89183L4.91702 7.57334L4.4934 6.89183L9.94212 3.67199L9.94213 3.67199Z" fill="#00FFCF"/>
<path fill-rule="evenodd" clip-rule="evenodd" d="M8.25 18.5662C8.25 18.221 8.64175 17.9412 9.125 17.9412H16.125C16.6082 17.9412 17 18.221 17 18.5662C17 18.9113 16.6082 19.1912 16.125 19.1912H9.125C8.64175 19.1912 8.25 18.9113 8.25 18.5662Z" fill="#00FFCF"/>
</g>
<defs>
<filter id="filter0_d_509_213" x="0" y="0.941162" width="25.25" height="24" filterUnits="userSpaceOnUse" color-interpolation-filters="sRGB">
<feFlood flood-opacity="0" result="BackgroundImageFix"/>
<feColorMatrix in="SourceAlpha" type="matrix" values="0 0 0 0 0 0 0 0 0 0 0 0 0 0 0 0 0 0 127 0" result="hardAlpha"/>
<feOffset/>
<feGaussianBlur stdDeviation="1"/>
<feComposite in2="hardAlpha" operator="out"/>
<feColorMatrix type="matrix" values="0 0 0 0 0 0 0 0 0 1 0 0 0 0 0.811765 0 0 0 1 0"/>
<feBlend mode="normal" in2="BackgroundImageFix" result="effect1_dropShadow_509_213"/>
<feBlend mode="normal" in="SourceGraphic" in2="effect1_dropShadow_509_213" result="shape"/>
</filter>
</defs>
</svg>
