<svg width="20" height="21" viewBox="0 0 20 21" fill="none" xmlns="http://www.w3.org/2000/svg">
<path d="M0.00146771 8.95162C0.0885516 8.66287 0.303815 8.51948 0.571427 8.41279C2.55234 7.62583 4.53179 6.83447 6.50879 6.03772C6.76075 5.93642 6.98922 5.93348 7.24166 6.03625C8.42121 6.51685 9.60565 6.98569 10.7872 7.4609C11.1511 7.60723 11.3199 7.90136 11.2324 8.22241C11.1252 8.61638 10.7456 8.78816 10.3292 8.62323C9.4535 8.27575 8.57923 7.92387 7.70448 7.57395C7.64528 7.55046 7.5856 7.52942 7.50096 7.49859V7.72469C7.50096 10.8764 7.50243 14.0287 7.49656 17.1804C7.49656 17.3546 7.5538 17.4227 7.71035 17.4848C9.2397 18.0887 10.7651 18.702 12.2916 19.3127C12.3512 19.3367 12.4109 19.3592 12.5014 19.394V19.1532C12.5014 17.0889 12.5014 15.0246 12.5014 12.9603C12.5014 12.8756 12.498 12.7895 12.5132 12.7073C12.5685 12.4058 12.8371 12.19 13.1394 12.1963C13.4496 12.2032 13.7084 12.4391 13.7451 12.7528C13.7539 12.8301 13.7509 12.9089 13.7509 12.9867C13.7509 15.0447 13.7509 17.1026 13.7509 19.16V19.3901C13.8488 19.3548 13.9271 19.3284 14.0039 19.2976C15.5244 18.6892 17.0435 18.078 18.5665 17.476C18.7137 17.4178 18.7548 17.3468 18.7544 17.1936C18.749 14.9341 18.7519 12.674 18.749 10.4144C18.749 10.1218 18.839 9.88833 19.111 9.75619C19.4975 9.56875 19.9466 9.82569 19.9946 10.2569C20.0024 10.3278 19.9995 10.3998 19.9995 10.4717C19.9995 12.8614 19.9995 15.2517 19.9995 17.6414C19.9995 18.1294 19.8943 18.2865 19.4437 18.4666C17.453 19.2638 15.4613 20.0591 13.4721 20.8602C13.2333 20.9566 13.0142 20.9552 12.7759 20.8588C10.8777 20.0928 8.976 19.3352 7.07728 18.5698C6.93345 18.5121 6.81358 18.5135 6.67073 18.5708C4.79598 19.3259 2.91927 20.0757 1.04305 20.8269C0.507337 21.0413 0.292563 20.9694 0 20.478V8.95064L0.00146771 8.95162ZM1.25146 19.3901C1.32925 19.3612 1.38894 19.3411 1.44765 19.3176C2.98629 18.7024 4.52396 18.0848 6.06505 17.476C6.21036 17.4187 6.25586 17.3512 6.25537 17.1951C6.24998 14.0306 6.25145 10.8662 6.25096 7.7012C6.25096 7.63953 6.24509 7.57787 6.24167 7.49859C6.16437 7.52795 6.10419 7.54997 6.04548 7.57346C4.5132 8.18668 2.98189 8.80284 1.44716 9.40921C1.29501 9.4694 1.24755 9.54184 1.24804 9.70334C1.25293 12.8614 1.25195 16.0196 1.25195 19.1777V19.3901H1.25146Z" fill="#7C8792"/>
<path d="M16.0171 0.941162C16.4182 1.04345 16.8312 1.11294 17.2186 1.25389C18.859 1.85047 20.0278 3.56386 19.9975 5.31201C19.9848 6.03779 19.7181 6.69701 19.3982 7.33323C18.6472 8.82542 17.6418 10.1434 16.5748 11.4183C16.4202 11.6028 16.2676 11.7897 16.1046 11.9669C15.8248 12.2718 15.4192 12.2777 15.1477 11.9654C13.9036 10.5334 12.727 9.05152 11.863 7.34938C11.5856 6.80321 11.3463 6.23942 11.2827 5.6218C11.1766 4.59259 11.4559 3.65783 12.0425 2.82193C12.7876 1.76042 13.8165 1.14573 15.1061 0.976399C15.1501 0.970526 15.1927 0.952908 15.2358 0.941162C15.496 0.941162 15.7568 0.941162 16.0171 0.941162ZM15.6051 10.6357C15.701 10.5212 15.7602 10.4527 15.817 10.3822C16.7959 9.17191 17.7309 7.93128 18.405 6.51691C18.5988 6.10973 18.77 5.6908 18.7465 5.2293C18.6854 4.03565 18.135 3.12096 17.0831 2.56304C16.0078 1.99289 14.9231 2.06042 13.8982 2.72111C12.8483 3.39747 12.0024 4.97872 12.8586 6.536C13.2216 7.19571 13.5875 7.85787 14.0083 8.48088C14.5024 9.21204 15.0572 9.9021 15.6056 10.6362L15.6051 10.6357Z" fill="#7C8792"/>
<path d="M17.5 5.31694C17.5009 6.33832 16.6409 7.19673 15.6223 7.19184C14.5978 7.18645 13.7436 6.32559 13.7534 5.30862C13.7632 4.28822 14.6032 3.44987 15.6213 3.444C16.6399 3.43813 17.4995 4.29507 17.5004 5.31743L17.5 5.31694ZM15.6281 5.94141C15.9677 5.94044 16.2485 5.65952 16.25 5.32036C16.2514 4.98072 15.9731 4.69785 15.634 4.69393C15.2862 4.69002 14.9995 4.97632 15.0029 5.32428C15.0063 5.66343 15.2886 5.94239 15.6281 5.94141Z" fill="#7C8792"/>
</svg>
