<svg width="24" height="25" viewBox="0 0 24 25" fill="none" xmlns="http://www.w3.org/2000/svg">
<g filter="url(#filter0_d_509_266)">
<path d="M2.00147 10.9516C2.08855 10.6629 2.30382 10.5195 2.57143 10.4128C4.55234 9.62583 6.53179 8.83447 8.50879 8.03772C8.76075 7.93642 8.98922 7.93348 9.24166 8.03625C10.4212 8.51685 11.6057 8.98569 12.7872 9.4609C13.1511 9.60723 13.3199 9.90136 13.2324 10.2224C13.1252 10.6164 12.7456 10.7882 12.3292 10.6232C11.4535 10.2758 10.5792 9.92387 9.70448 9.57395C9.64528 9.55046 9.5856 9.52942 9.50096 9.49859V9.72469C9.50096 12.8764 9.50243 16.0287 9.49656 19.1804C9.49656 19.3546 9.5538 19.4227 9.71035 19.4848C11.2397 20.0887 12.7651 20.702 14.2916 21.3127C14.3512 21.3367 14.4109 21.3592 14.5014 21.394V21.1532C14.5014 19.0889 14.5014 17.0246 14.5014 14.9603C14.5014 14.8756 14.498 14.7895 14.5132 14.7073C14.5685 14.4058 14.8371 14.19 15.1394 14.1963C15.4496 14.2032 15.7084 14.4391 15.7451 14.7528C15.7539 14.8301 15.7509 14.9089 15.7509 14.9867C15.7509 17.0447 15.7509 19.1026 15.7509 21.16V21.3901C15.8488 21.3548 15.9271 21.3284 16.0039 21.2976C17.5244 20.6892 19.0435 20.078 20.5665 19.476C20.7137 19.4178 20.7548 19.3468 20.7544 19.1936C20.749 16.9341 20.7519 14.674 20.749 12.4144C20.749 12.1218 20.839 11.8883 21.111 11.7562C21.4975 11.5688 21.9466 11.8257 21.9946 12.2569C22.0024 12.3278 21.9995 12.3998 21.9995 12.4717C21.9995 14.8614 21.9995 17.2517 21.9995 19.6414C21.9995 20.1294 21.8943 20.2865 21.4437 20.4666C19.453 21.2638 17.4613 22.0591 15.4721 22.8602C15.2333 22.9566 15.0142 22.9552 14.7759 22.8588C12.8777 22.0928 10.976 21.3352 9.07728 20.5698C8.93345 20.5121 8.81358 20.5135 8.67073 20.5708C6.79598 21.3259 4.91927 22.0757 3.04305 22.8269C2.50734 23.0413 2.29256 22.9694 2 22.478V10.9506L2.00147 10.9516ZM3.25146 21.3901C3.32925 21.3612 3.38894 21.3411 3.44765 21.3176C4.98629 20.7024 6.52396 20.0848 8.06505 19.476C8.21036 19.4187 8.25586 19.3512 8.25537 19.1951C8.24998 16.0306 8.25145 12.8662 8.25096 9.7012C8.25096 9.63953 8.24509 9.57787 8.24167 9.49859C8.16437 9.52795 8.10419 9.54997 8.04548 9.57346C6.5132 10.1867 4.98189 10.8028 3.44716 11.4092C3.29501 11.4694 3.24755 11.5418 3.24804 11.7033C3.25293 14.8614 3.25195 18.0196 3.25195 21.1777V21.3901H3.25146Z" fill="#00FFCF"/>
<path d="M18.0171 2.94116C18.4182 3.04345 18.8311 3.11294 19.2186 3.25389C20.859 3.85047 22.0278 5.56386 21.9975 7.31201C21.9848 8.03779 21.7181 8.69701 21.3982 9.33323C20.6472 10.8254 19.6418 12.1434 18.5748 13.4183C18.4202 13.6028 18.2675 13.7897 18.1046 13.9669C17.8248 14.2718 17.4192 14.2777 17.1477 13.9654C15.9036 12.5334 14.7269 11.0515 13.863 9.34938C13.5856 8.80321 13.3463 8.23942 13.2827 7.6218C13.1766 6.59259 13.4559 5.65783 14.0425 4.82193C14.7876 3.76042 15.8165 3.14573 17.1061 2.9764C17.1501 2.97053 17.1927 2.95291 17.2357 2.94116C17.496 2.94116 17.7568 2.94116 18.0171 2.94116ZM17.6051 12.6357C17.701 12.5212 17.7602 12.4527 17.817 12.3822C18.7959 11.1719 19.7309 9.93128 20.405 8.51691C20.5988 8.10973 20.77 7.6908 20.7465 7.2293C20.6853 6.03565 20.135 5.12096 19.0831 4.56304C18.0078 3.99289 16.9231 4.06042 15.8982 4.72111C14.8483 5.39747 14.0024 6.97872 14.8586 8.536C15.2216 9.19571 15.5875 9.85787 16.0083 10.4809C16.5024 11.212 17.0572 11.9021 17.6056 12.6362L17.6051 12.6357Z" fill="#00FFCF"/>
<path d="M19.4999 7.31694C19.5009 8.33832 18.6408 9.19673 17.6223 9.19184C16.5978 9.18645 15.7436 8.32559 15.7534 7.30862C15.7632 6.28822 16.6032 5.44987 17.6213 5.444C18.6399 5.43813 19.4995 6.29507 19.5004 7.31743L19.4999 7.31694ZM17.6281 7.94141C17.9677 7.94044 18.2485 7.65952 18.2499 7.32036C18.2514 6.98072 17.973 6.69785 17.634 6.69393C17.2862 6.69002 16.9995 6.97632 17.0029 7.32428C17.0063 7.66343 17.2886 7.94239 17.6281 7.94141Z" fill="#00FFCF"/>
</g>
<defs>
<filter id="filter0_d_509_266" x="0" y="0.941162" width="24" height="24" filterUnits="userSpaceOnUse" color-interpolation-filters="sRGB">
<feFlood flood-opacity="0" result="BackgroundImageFix"/>
<feColorMatrix in="SourceAlpha" type="matrix" values="0 0 0 0 0 0 0 0 0 0 0 0 0 0 0 0 0 0 127 0" result="hardAlpha"/>
<feOffset/>
<feGaussianBlur stdDeviation="1"/>
<feComposite in2="hardAlpha" operator="out"/>
<feColorMatrix type="matrix" values="0 0 0 0 0 0 0 0 0 1 0 0 0 0 0.811765 0 0 0 1 0"/>
<feBlend mode="normal" in2="BackgroundImageFix" result="effect1_dropShadow_509_266"/>
<feBlend mode="normal" in="SourceGraphic" in2="effect1_dropShadow_509_266" result="shape"/>
</filter>
</defs>
</svg>
