<svg width="20" height="21" viewBox="0 0 20 21" fill="none" xmlns="http://www.w3.org/2000/svg">
<path d="M19.1173 0.941162C19.5769 1.07367 19.917 1.34025 19.989 1.83219C20.0188 2.0346 19.9854 2.26362 19.9201 2.46081C18.8144 5.79694 17.6983 9.12994 16.5853 12.464C15.7339 15.0155 14.8837 17.5676 14.0329 20.1191C13.8208 20.7545 13.287 21.0649 12.6853 20.8953C12.2785 20.7811 12.044 20.4978 11.9312 20.0993C11.5525 18.7679 11.1712 17.4377 10.7915 16.1069C10.3706 14.6321 9.94646 13.1583 9.53281 11.682C9.48737 11.5198 9.40172 11.4551 9.25078 11.4123C6.4863 10.6277 3.72496 9.83317 0.9584 9.05639C0.469537 8.91919 0.137884 8.65939 0 8.16693V7.73706C0.138929 7.34424 0.378659 7.06097 0.792834 6.92377C6.13376 5.15058 11.4736 3.3727 16.8135 1.5943C17.4528 1.38146 18.0889 1.15922 18.7261 0.941162C18.8567 0.941162 18.9868 0.941162 19.1173 0.941162ZM1.09628 7.95982C1.1856 7.99112 1.22059 8.00521 1.25663 8.01564C4.02737 8.80755 6.79811 9.59789 9.56781 10.394C9.70674 10.4341 9.78873 10.4054 9.88849 10.3058C12.4608 7.72976 15.0372 5.15736 17.6126 2.58445C17.6565 2.54063 17.6983 2.4942 17.7824 2.40447C12.1981 4.26321 6.67119 6.10369 1.09628 7.95982ZM18.5345 3.23081C18.5136 3.21359 18.4927 3.1969 18.4718 3.17968C18.4337 3.23915 18.4049 3.30854 18.3564 3.35758C15.793 5.92162 13.2285 8.48515 10.6594 11.0435C10.5408 11.1619 10.5178 11.2584 10.5628 11.4144C11.3352 14.0984 12.1019 16.784 12.8702 19.4691C12.9016 19.5786 12.9387 19.6871 12.9893 19.8494C14.8497 14.2732 16.6923 8.75225 18.5345 3.23081Z" fill="#7C8792"/>
</svg>
