<svg width="24" height="25" viewBox="0 0 24 25" fill="none" xmlns="http://www.w3.org/2000/svg">
<g filter="url(#filter0_d_509_2317)">
<path d="M21.1173 2.94116C21.5769 3.07367 21.917 3.34025 21.989 3.83219C22.0188 4.0346 21.9854 4.26362 21.9201 4.46081C20.8144 7.79694 19.6983 11.1299 18.5853 14.464C17.7339 17.0155 16.8837 19.5676 16.0329 22.1191C15.8208 22.7545 15.287 23.0649 14.6853 22.8953C14.2785 22.7811 14.044 22.4978 13.9312 22.0993C13.5525 20.7679 13.1712 19.4377 12.7915 18.1069C12.3706 16.6321 11.9465 15.1583 11.5328 13.682C11.4874 13.5198 11.4017 13.4551 11.2508 13.4123C8.4863 12.6277 5.72496 11.8332 2.9584 11.0564C2.46954 10.9192 2.13788 10.6594 2 10.1669V9.73706C2.13893 9.34424 2.37866 9.06097 2.79283 8.92377C8.13376 7.15058 13.4736 5.3727 18.8135 3.5943C19.4528 3.38146 20.0889 3.15922 20.7261 2.94116C20.8567 2.94116 20.9868 2.94116 21.1173 2.94116ZM3.09628 9.95982C3.1856 9.99112 3.22059 10.0052 3.25663 10.0156C6.02737 10.8075 8.79811 11.5979 11.5678 12.394C11.7067 12.4341 11.7887 12.4054 11.8885 12.3058C14.4608 9.72976 17.0372 7.15736 19.6126 4.58445C19.6565 4.54063 19.6983 4.4942 19.7824 4.40447C14.1981 6.26321 8.67119 8.10369 3.09628 9.95982ZM20.5345 5.23081C20.5136 5.21359 20.4927 5.1969 20.4718 5.17968C20.4337 5.23915 20.4049 5.30854 20.3564 5.35758C17.793 7.92162 15.2285 10.4851 12.6594 13.0435C12.5408 13.1619 12.5178 13.2584 12.5628 13.4144C13.3352 16.0984 14.1019 18.784 14.8702 21.4691C14.9016 21.5786 14.9387 21.6871 14.9893 21.8494C16.8497 16.2732 18.6923 10.7522 20.5345 5.23081Z" fill="#00FFCF"/>
</g>
<defs>
<filter id="filter0_d_509_2317" x="0" y="0.941162" width="24" height="24" filterUnits="userSpaceOnUse" color-interpolation-filters="sRGB">
<feFlood flood-opacity="0" result="BackgroundImageFix"/>
<feColorMatrix in="SourceAlpha" type="matrix" values="0 0 0 0 0 0 0 0 0 0 0 0 0 0 0 0 0 0 127 0" result="hardAlpha"/>
<feOffset/>
<feGaussianBlur stdDeviation="1"/>
<feComposite in2="hardAlpha" operator="out"/>
<feColorMatrix type="matrix" values="0 0 0 0 0 0 0 0 0 1 0 0 0 0 0.811765 0 0 0 1 0"/>
<feBlend mode="normal" in2="BackgroundImageFix" result="effect1_dropShadow_509_2317"/>
<feBlend mode="normal" in="SourceGraphic" in2="effect1_dropShadow_509_2317" result="shape"/>
</filter>
</defs>
</svg>
