<svg width="17" height="21" viewBox="0 0 17 21" fill="none" xmlns="http://www.w3.org/2000/svg">
<path d="M8.66724 0.941162C8.92701 0.993018 9.18873 1.03802 9.44654 1.09869C11.2179 1.51402 12.7325 3.20471 12.9698 5.01231C13.1258 6.20205 12.9546 7.32771 12.2815 8.33449C11.3882 9.671 10.1525 10.4498 8.51852 10.5604C6.37288 10.7057 4.60783 9.44303 3.807 7.72984C3.05461 6.12085 3.35889 3.97716 4.53885 2.64359C5.26287 1.82515 6.13512 1.2611 7.21528 1.04096C7.39874 1.00329 7.58414 0.973939 7.76857 0.941162C8.06797 0.941162 8.36736 0.941162 8.66675 0.941162H8.66724ZM8.22109 9.40389C10.2513 9.38922 11.8705 7.76261 11.8583 5.74905C11.8461 3.70859 10.2146 2.09373 8.1844 2.11329C6.1542 2.13286 4.54717 3.76484 4.56771 5.78574C4.58826 7.8042 6.2178 9.41808 8.22157 9.40389H8.22109Z" fill="#7C8792"/>
<path d="M8.32823 20.9398C6.74663 20.9398 5.16504 20.9393 3.58344 20.9398C2.77919 20.9398 2.01897 20.7828 1.35023 20.3092C0.577778 19.7628 0.122819 19.0089 0.0435683 18.0751C-0.0968331 16.4211 0.0954238 14.7984 0.717691 13.251C1.08557 12.3357 1.63593 11.5461 2.53655 11.0579C3.11038 10.7463 3.72678 10.599 4.37253 10.6108C4.57408 10.6147 4.78688 10.715 4.97083 10.8148C5.27266 10.9792 5.55249 11.1841 5.84601 11.3647C7.50734 12.3842 9.17015 12.3842 10.8315 11.3647C11.0697 11.2184 11.3114 11.0746 11.535 10.9077C11.9351 10.6088 12.3744 10.5687 12.8499 10.6387C14.1473 10.829 15.0641 11.5388 15.6819 12.6723C16.2338 13.6845 16.4823 14.7832 16.5928 15.9157C16.6501 16.5037 16.6765 17.0976 16.6691 17.6886C16.6471 19.4223 15.4231 20.7353 13.6963 20.9031C13.457 20.9261 13.2159 20.9389 12.9757 20.9393C11.4268 20.9423 9.87753 20.9408 8.32872 20.9408L8.32823 20.9398ZM8.32921 19.7682V19.7653C9.98222 19.7653 11.6357 19.7794 13.2888 19.7609C14.6722 19.7457 15.5166 18.8666 15.5019 17.4846C15.4965 16.9646 15.477 16.4421 15.4178 15.926C15.3121 14.9989 15.1194 14.0915 14.6673 13.2588C14.2021 12.4018 13.5294 11.8485 12.5212 11.7903C12.4312 11.7849 12.325 11.8069 12.2487 11.8524C11.9532 12.029 11.6685 12.2247 11.3755 12.4062C10.5717 12.9047 9.698 13.2085 8.75579 13.2814C7.46527 13.3816 6.2858 13.0299 5.19977 12.3421C4.94147 12.1787 4.6866 12.0094 4.42585 11.8499C4.36323 11.8118 4.28203 11.7819 4.2106 11.7844C3.80114 11.7986 3.41516 11.9033 3.05853 12.1087C2.40789 12.4835 2.04441 13.0901 1.77584 13.7544C1.25973 15.0322 1.14477 16.3795 1.17999 17.7395C1.19907 18.4718 1.52145 19.0686 2.17405 19.4492C2.60259 19.6992 3.07614 19.7682 3.56388 19.7677C5.15183 19.7677 6.74027 19.7677 8.32823 19.7677L8.32921 19.7682Z" fill="#7C8792"/>
</svg>
