<svg width="18" height="17" viewBox="0 0 18 17" fill="none" xmlns="http://www.w3.org/2000/svg">
<path d="M0.0065918 8.06933C0.0617604 7.66476 0.102217 7.25651 0.175776 6.85562C0.385416 5.71914 0.834121 4.68197 1.49247 3.70733C1.76831 4.14132 2.12507 4.46866 2.58848 4.70036C1.4042 6.67172 1.14306 8.74606 1.91543 10.9123C2.42665 12.3467 3.34613 13.4906 4.60765 14.3365C7.25207 16.1092 10.6578 15.8665 13.0043 13.8915C15.5568 11.7436 16.182 8.32678 14.8764 5.5426C14.1187 3.92433 12.9013 2.75107 11.2647 2.04124C9.628 1.33508 7.95087 1.30198 6.23697 1.84999C6.11927 1.34979 5.8986 0.919477 5.51242 0.529619C5.92434 0.411926 6.29949 0.286877 6.68567 0.205963C7.08656 0.121371 7.49481 0.0845918 7.89938 0.0257453C7.93616 0.0220674 7.97294 0.00735581 8.00972 0C8.34073 0 8.67542 0 9.00643 0C9.0616 0.0110337 9.11309 0.0220674 9.16826 0.0294233C9.53973 0.0845919 9.91487 0.114015 10.2827 0.191251C12.3386 0.636278 14.0157 1.69551 15.2773 3.37264C16.8293 5.43595 17.3406 7.76038 16.8146 10.2871C16.388 12.321 15.3251 13.9724 13.681 15.2376C11.9046 16.6021 9.88545 17.1721 7.66032 16.9551C5.82872 16.7786 4.21412 16.0577 2.84594 14.8256C1.39316 13.5163 0.48472 11.8943 0.142674 9.95977C0.0875057 9.63979 0.0544046 9.31614 0.0102697 8.99248C0.0102697 8.68354 0.0102697 8.37092 0.0102697 8.06197L0.0065918 8.06933Z" fill="#00FFCF"/>
<path d="M8.51725 3.40202C11.3713 3.41673 13.6259 5.73013 13.6001 8.51431C13.578 11.35 11.2904 13.6119 8.49886 13.5935C5.64848 13.5751 3.39024 11.2654 3.41599 8.4812C3.43806 5.64554 5.72571 3.37995 8.51725 3.40202ZM9.24547 9.23518C9.32271 9.23518 9.38155 9.23518 9.4404 9.23518C9.96634 9.23518 10.4923 9.23518 11.0182 9.23518C11.0991 9.23518 11.1874 9.23517 11.2646 9.22046C11.6361 9.13955 11.8678 8.80854 11.8347 8.41868C11.8016 8.06192 11.5074 7.77505 11.1359 7.77137C10.5732 7.76401 10.0068 7.77137 9.4404 7.76769C9.38155 7.76769 9.32271 7.76769 9.24179 7.76769V7.57276C9.24179 7.04682 9.24179 6.52088 9.24179 5.99494C9.24179 5.90667 9.24179 5.81472 9.21973 5.73013C9.12778 5.35498 8.80044 5.13431 8.40691 5.17844C8.05383 5.21522 7.77799 5.51681 7.77431 5.89196C7.76695 6.451 7.77431 7.01004 7.77431 7.56908C7.77431 7.62793 7.77431 7.68678 7.77431 7.76769C7.69707 7.76769 7.63823 7.76769 7.57938 7.76769C7.05344 7.76769 6.5275 7.76769 6.00156 7.76769C5.91329 7.76769 5.82134 7.76769 5.73675 7.78976C5.3616 7.88171 5.14093 8.20904 5.18506 8.60257C5.22184 8.95565 5.52343 9.2315 5.89858 9.23518C6.45762 9.24253 7.01666 9.23518 7.5757 9.23518C7.63455 9.23518 7.69339 9.23518 7.77431 9.23518C7.77431 9.31241 7.77431 9.37126 7.77431 9.4301C7.77431 9.95604 7.77431 10.482 7.77431 11.0079C7.77431 11.0962 7.77431 11.1881 7.79638 11.2727C7.88832 11.6442 8.21933 11.8686 8.60919 11.8244C8.96227 11.7876 9.23812 11.4861 9.24179 11.1109C9.24915 10.5519 9.24179 9.99282 9.24179 9.43378C9.24179 9.37494 9.24179 9.31609 9.24179 9.23518H9.24547Z" fill="#00FFCF"/>
<path d="M2.29785 2.36834C2.29785 1.59966 2.93781 0.963379 3.70649 0.963379C4.47517 0.963379 5.11513 1.60701 5.11145 2.37202C5.11145 3.1407 4.46782 3.78066 3.70281 3.77698C2.93413 3.77698 2.29785 3.13702 2.29785 2.36834Z" fill="#00FFCF"/>
</svg>
