<svg width="17" height="14" viewBox="0 0 17 14" fill="none" xmlns="http://www.w3.org/2000/svg">
<path d="M0.00667708 4.24324C0.0801249 3.90317 0.126864 3.55319 0.233698 3.22303C0.908082 1.13639 3.00468 -0.19747 5.20812 0.0369461C6.32653 0.155805 7.28469 0.611432 8.0826 1.39062C8.21948 1.52268 8.34968 1.66466 8.48656 1.80332C8.73362 1.57221 8.95062 1.3477 9.18766 1.143C11.9319 -1.19787 16.2053 0.24495 16.903 3.7612C17.2035 5.27995 16.7995 6.65674 15.7779 7.80571C15.0601 8.61131 14.2589 9.35087 13.4443 10.064C12.0087 11.3154 10.5364 12.5238 9.07749 13.7487C8.67686 14.0854 8.32298 14.0821 7.91567 13.7487C5.94594 12.1408 3.97954 10.5263 2.13333 8.77639C1.5424 8.21511 0.964837 7.64063 0.584244 6.90766C0.290453 6.34308 0.0934791 5.75209 0.0300468 5.11817C0.0300468 5.08846 0.0100156 5.05874 0 5.02573C0 4.76159 0 4.50076 0 4.23663L0.00667708 4.24324ZM8.49658 12.2992C8.54666 12.2629 8.58672 12.2332 8.62678 12.2035C9.81864 11.1998 11.0239 10.2126 12.1957 9.18909C12.9936 8.49245 13.7781 7.77269 14.5126 7.00671C15.3973 6.08225 15.7245 4.96299 15.3539 3.72158C14.6862 1.48967 11.7951 0.750101 10.0757 2.358C9.74185 2.66835 9.42469 2.99852 9.09752 3.31878C8.73695 3.67535 8.2729 3.67205 7.909 3.31878C7.60185 3.01833 7.30806 2.70797 6.9909 2.41743C6.05611 1.5557 4.96441 1.28497 3.7425 1.65475C1.80949 2.23914 0.954822 4.38851 1.90964 6.20771C2.20677 6.7756 2.64746 7.23452 3.11819 7.65383C4.54709 8.92166 5.986 10.173 7.42825 11.4243C7.77546 11.7281 8.13936 12.012 8.49992 12.3058L8.49658 12.2992Z" fill="#EDEFF0"/>
</svg>
