<svg width="16" height="17" viewBox="0 0 16 17" fill="none" xmlns="http://www.w3.org/2000/svg">
<path d="M13.3952 0C13.646 0.0652119 13.9052 0.109149 14.1465 0.199336C15.3783 0.661369 16.1333 1.88837 15.9804 3.15561C15.8266 4.42886 14.8099 5.4593 13.5097 5.63551C12.596 5.759 11.7916 5.50832 11.1068 4.90292C11.0608 4.86222 11.0161 4.81921 10.971 4.77758C10.9672 4.77388 10.961 4.77249 10.9382 4.76186C9.19927 5.72709 7.45032 6.69833 5.69282 7.67373C5.85523 8.22317 5.85808 8.76799 5.69187 9.32438C7.44414 10.297 9.19262 11.2678 10.9496 12.2432C11.5584 11.6322 12.293 11.3168 13.1621 11.3348C13.8563 11.3492 14.4722 11.5827 14.9965 12.03C16.0469 12.9263 16.3033 14.391 15.6186 15.5607C14.9295 16.7373 13.4935 17.2761 12.1881 16.8612C11.0175 16.4894 9.89115 15.2573 10.2525 13.4882C9.79855 13.2357 9.34078 12.9813 8.88348 12.7274C7.61652 12.024 6.34814 11.3219 5.08356 10.6143C4.97197 10.5518 4.90596 10.5569 4.80529 10.6383C3.9339 11.345 2.94522 11.5323 1.88911 11.1443C0.820171 10.7516 0.190018 9.97002 0.0285614 8.86188C-0.142392 7.69038 0.465442 6.56374 1.5472 5.99811C2.59809 5.44866 3.90636 5.5925 4.80861 6.35885C4.87889 6.41852 4.9297 6.47124 5.04035 6.40973C6.77363 5.44219 8.50928 4.47927 10.2497 3.51312C10.2293 3.34384 10.1979 3.17596 10.1903 3.00669C10.1215 1.48369 11.1562 0.25946 12.7038 0.0272872C12.7309 0.0231248 12.7565 0.00924992 12.7826 0.000462496C12.9873 0.000462496 13.1915 0.000462496 13.3962 0.000462496L13.3952 0Z" fill="#EDEFF0"/>
</svg>
