<svg width="17" height="20" viewBox="0 0 17 20" fill="none" xmlns="http://www.w3.org/2000/svg">
<path fill-rule="evenodd" clip-rule="evenodd" d="M9.15127 1.74038C10.4881 0.0085426 12.3464 0 12.3464 0C12.3464 0 12.6228 1.62834 11.295 3.1972C9.87686 4.8722 8.26525 4.59818 8.26525 4.59818C8.26525 4.59818 7.96278 3.28099 9.15127 1.7407V1.74038Z" fill="#7C8792"/>
<path fill-rule="evenodd" clip-rule="evenodd" d="M8.43504 5.73873C9.12286 5.73873 10.3989 4.80957 12.0603 4.80957C14.9199 4.80957 16.0449 6.80984 16.0449 6.80984C16.0449 6.80984 13.8447 7.91576 13.8447 10.5991C13.8447 13.6261 16.5857 14.6693 16.5857 14.6693C16.5857 14.6693 14.6696 19.9709 12.0817 19.9709C10.8929 19.9709 9.96911 19.1834 8.71645 19.1834C7.4638 19.1834 6.17371 20.0002 5.34885 20.0002C2.98559 20.0005 0 14.9716 0 10.929C0 6.88639 2.52704 4.86543 4.89732 4.86543C6.43808 4.86543 7.63391 5.73906 8.43504 5.73906V5.73873Z" fill="#7C8792"/>
</svg>
