<svg width="29" height="29" viewBox="0 0 29 29" fill="none" xmlns="http://www.w3.org/2000/svg">
<path fill-rule="evenodd" clip-rule="evenodd" d="M7.07107 7.07102C7.50498 6.63711 8.2085 6.63711 8.64242 7.07102L14.1421 12.5707L19.6419 7.07102C20.0758 6.63711 20.7793 6.63711 21.2132 7.07102C21.6471 7.50494 21.6471 8.20845 21.2132 8.64237L15.7135 14.1421L21.2132 19.6418C21.6471 20.0757 21.6471 20.7792 21.2132 21.2132C20.7793 21.6471 20.0758 21.6471 19.6419 21.2132L14.1421 15.7134L8.64242 21.2132C8.2085 21.6471 7.50498 21.6471 7.07107 21.2132C6.63715 20.7792 6.63715 20.0757 7.07107 19.6418L12.5708 14.1421L7.07107 8.64237C6.63715 8.20846 6.63715 7.50494 7.07107 7.07102Z" fill="#EDEFF0"/>
</svg>
