<svg width="10" height="20" viewBox="0 0 10 20" fill="none" xmlns="http://www.w3.org/2000/svg">
<path d="M8.46967 0.00161577C8.77449 0.0274681 9.08087 0.0549362 9.38569 0.0807885C9.58476 0.098562 9.78538 0.116335 10 0.134109V3.32364C9.94246 3.32364 9.87714 3.32364 9.81026 3.32364C9.15708 3.33495 8.50389 3.33333 7.85225 3.35919C7.00933 3.39312 6.54588 3.85361 6.51633 4.72451C6.48834 5.57602 6.51011 6.43076 6.51011 7.30974H9.90047C9.74961 8.51995 9.60342 9.70108 9.45412 10.8935H6.51477V20H2.94557V10.8984H0V7.32267H2.94557C2.94557 7.22088 2.94557 7.14493 2.94557 7.06899C2.95179 6.13185 2.93157 5.19147 2.97201 4.25594C3.02799 2.98917 3.42768 1.86298 4.38725 1.01147C5.03732 0.434642 5.80871 0.153498 6.64697 0.04201C6.71384 0.0323154 6.78072 0.0145419 6.84603 0C7.38569 0 7.9269 0 8.46656 0L8.46967 0.00161577Z" fill="#7C8792"/>
</svg>
