<svg width="20" height="20" viewBox="0 0 20 20" fill="none" xmlns="http://www.w3.org/2000/svg">
<path d="M19.7667 8.17508H10.2333V12.0424H15.7189C15.2089 14.4987 13.0657 15.9098 10.2333 15.9098C6.88551 15.9098 4.18882 13.2732 4.18882 10C4.18882 6.7268 6.88551 4.0902 10.2333 4.0902C11.6766 4.0902 12.9788 4.58887 13.9989 5.41115L16.9778 2.49869C15.1655 0.954925 12.8378 1.89072e-05 10.2333 1.89072e-05C4.55779 -0.0105912 0 4.44564 0 9.9947C0 15.5438 4.55779 20 10.2333 20C15.35 20 20 16.3607 20 9.9947C20 9.40585 19.9078 8.76924 19.7667 8.17508Z" fill="#7C8792"/>
<mask id="mask0_509_1255" style="mask-type:luminance" maskUnits="userSpaceOnUse" x="0" y="0" width="20" height="20">
<path d="M19.7667 8.17508H10.2333V12.0424H15.7189C15.2089 14.4987 13.0657 15.9098 10.2333 15.9098C6.88551 15.9098 4.18882 13.2732 4.18882 10C4.18882 6.7268 6.88551 4.0902 10.2333 4.0902C11.6766 4.0902 12.9788 4.58887 13.9989 5.41115L16.9778 2.49869C15.1655 0.954925 12.8378 1.89072e-05 10.2333 1.89072e-05C4.55779 -0.0105912 0 4.44564 0 9.9947C0 15.5438 4.55779 20 10.2333 20C15.35 20 20 16.3607 20 9.9947C20 9.40585 19.9078 8.76924 19.7667 8.17508Z" fill="white"/>
</mask>
<g mask="url(#mask0_509_1255)">
<path d="M21.3944 20.9072L6.97767 9.99477L5.11658 8.63138L21.3944 4.08496V20.9072Z" fill="#7C8792"/>
</g>
</svg>
