<svg width="24" height="16" viewBox="0 0 24 16" fill="none" xmlns="http://www.w3.org/2000/svg">
<path d="M0 7.39934C0.115633 7.20955 0.210721 7.00355 0.349245 6.83228C2.03912 4.74397 4.00018 2.95367 6.35803 1.61412C7.90997 0.732274 9.56639 0.140327 11.3684 0.0211277C13.0189 -0.0882349 14.5985 0.231753 16.1128 0.869991C18.2829 1.78482 20.1388 3.15214 21.7894 4.79316C22.475 5.47479 23.1013 6.21603 23.7346 6.94685C24.0944 7.36173 24.0815 7.70313 23.7375 8.1319C22.0383 10.2538 20.0649 12.0759 17.6818 13.4351C15.7976 14.5096 13.7873 15.1606 11.5791 15.064C10.0688 14.998 8.64368 14.5964 7.29131 13.942C4.45215 12.5672 2.17941 10.5234 0.234787 8.09834C0.135589 7.97451 0.0774797 7.81828 0 7.67709C0 7.58451 0 7.4925 0 7.39992L0 7.39934ZM1.78849 7.55384C2.25337 8.04857 2.69066 8.54042 3.15612 9.00448C4.69809 10.5431 6.40205 11.8653 8.4312 12.7321C9.44665 13.166 10.5026 13.4513 11.6167 13.5034C13.3195 13.5827 14.8861 13.1151 16.377 12.3548C18.0434 11.5054 19.4861 10.3585 20.7986 9.04904C21.2799 8.56877 21.7313 8.05957 22.2056 7.55326C22.1187 7.45142 22.0588 7.37157 21.9896 7.30155C21.2541 6.558 20.5515 5.77915 19.7738 5.0819C18.3198 3.77996 16.7045 2.71527 14.8344 2.06198C12.9456 1.40234 11.0608 1.40118 9.17136 2.05562C7.54546 2.61921 6.11679 3.51321 4.79317 4.58427C3.70376 5.46553 2.72177 6.45269 1.7879 7.55326L1.78849 7.55384Z" fill="#7C8792"/>
<path d="M12.0186 2.8645C14.6424 2.88418 16.7531 4.98058 16.7384 7.5532C16.7238 10.1455 14.5761 12.2413 11.9646 12.2118C9.3362 12.1817 7.23133 10.0807 7.25657 7.51212C7.28181 4.92214 9.41016 2.84541 12.0181 2.86508L12.0186 2.8645ZM12.0057 10.6559C13.7537 10.6449 15.1607 9.25209 15.1577 7.53527C15.1548 5.81613 13.7443 4.42393 12.001 4.41988C10.2571 4.41525 8.81614 5.8416 8.83493 7.55205C8.8543 9.27928 10.2718 10.6669 12.0057 10.6559Z" fill="#7C8792"/>
</svg>
