<svg width="25" height="19" viewBox="0 0 25 19" fill="none" xmlns="http://www.w3.org/2000/svg">
<path d="M0.633789 8.828C2.77 5.34452 5.71373 2.87039 9.77424 1.86543C12.5703 1.1735 15.3168 1.43259 17.9697 2.55548C18.1568 2.63452 18.2586 2.6088 18.3942 2.47267C19.14 1.72491 19.8953 0.986565 20.6475 0.245078C20.8676 0.0280275 21.1273 -0.0541507 21.4302 0.0361826C21.7133 0.120243 21.889 0.312828 21.9526 0.593238C22.0213 0.896859 21.8992 1.13775 21.6809 1.35166C20.6506 2.36164 19.6249 3.37538 18.5978 4.38849C14.0963 8.82612 9.59352 13.2637 5.09393 17.7039C4.87439 17.9209 4.63894 18.0771 4.31695 18.0188C4.02105 17.9655 3.81424 17.7942 3.72133 17.5069C3.62524 17.2096 3.70288 16.9511 3.92305 16.7328C4.55622 16.1061 5.19065 15.4813 5.82572 14.8571C5.88745 14.7963 5.95999 14.7467 6.05544 14.6702C3.79133 13.2506 1.96057 11.4671 0.633789 9.20376V8.828ZM16.9993 3.81011C16.9726 3.79254 16.9541 3.77623 16.9331 3.76808C14.326 2.7901 11.6941 2.72862 9.06535 3.64324C6.24062 4.62625 4.09678 6.47871 2.39137 8.86564C2.3061 8.98483 2.3131 9.06889 2.40092 9.17114C3.02008 9.89255 3.60552 10.646 4.26477 11.3297C5.10984 12.2055 6.09553 12.92 7.15505 13.5097C7.80094 12.8704 8.43856 12.24 9.07745 11.607C7.66731 9.54628 8.25274 7.26724 9.42934 6.00257C10.0867 5.29559 10.8853 4.82134 11.8347 4.61684C13.1501 4.33329 14.3642 4.5999 15.4587 5.32884C15.9805 4.81444 16.4851 4.31698 16.9993 3.81011ZM10.2063 10.4753C11.5732 9.12786 12.9445 7.77662 14.312 6.42852C13.3639 5.7918 11.731 5.81501 10.6371 6.92975C9.54261 8.04511 9.59861 9.64163 10.2057 10.4753H10.2063Z" fill="#7C8792"/>
<path d="M19.8265 5.35393C20.1937 4.99072 20.5507 4.63817 20.9427 4.25049C21.3588 4.60743 21.8062 4.96563 22.2243 5.35456C23.2151 6.27672 24.0716 7.30865 24.8059 8.44221C25.0655 8.84306 25.0649 9.19373 24.8027 9.59145C22.8969 12.4834 20.4037 14.6733 17.068 15.8276C14.4602 16.7297 11.8156 16.7554 9.16138 16.0051C9.12448 15.9944 9.09011 15.975 9.02075 15.9455C9.42292 15.5528 9.80727 15.172 10.2005 14.8007C10.2457 14.758 10.3482 14.7448 10.4156 14.7586C14.2184 15.5409 17.5529 14.5554 20.5074 12.1553C21.5669 11.2946 22.4705 10.2903 23.2551 9.17993C23.3417 9.0576 23.341 8.97542 23.2551 8.85372C22.3547 7.59031 21.2958 6.4762 20.0562 5.53084C19.9754 5.46936 19.8959 5.40663 19.8272 5.35393H19.8265Z" fill="#7C8792"/>
<path d="M17.2454 7.84058C17.6292 9.53997 17.2652 10.9922 16.0606 12.1854C14.849 13.386 13.3695 13.7499 11.6132 13.366C11.9084 13.0868 12.1585 12.8516 12.4073 12.6157C12.4531 12.5724 12.5009 12.5304 12.5416 12.4827C12.8127 12.164 13.134 11.9884 13.5699 11.8993C14.7796 11.6528 15.6813 10.6039 15.8353 9.38377C15.8455 9.30347 15.8729 9.20875 15.9269 9.15355C16.345 8.72697 16.772 8.30918 17.2448 7.84058H17.2454Z" fill="#7C8792"/>
</svg>
