<svg width="19" height="20" viewBox="0 0 19 20" fill="none" xmlns="http://www.w3.org/2000/svg">
<path d="M4.39946 0C5.10358 0.222296 5.55872 0.73816 5.942 1.31297C6.38418 1.976 6.81105 2.65175 7.19865 3.34638C7.48454 3.85877 7.63573 4.42087 7.51281 5.02111C7.43545 5.39789 7.25441 5.72267 6.96813 5.97578C6.57464 6.32406 6.18233 6.68081 5.74957 6.97746C4.9033 7.55689 4.78117 8.26038 5.09965 9.16806C5.393 10.0045 5.90744 10.7187 6.4588 11.4037C7.17901 12.2991 7.94832 13.1532 8.85389 13.8767C9.35459 14.2766 9.88081 14.6372 10.5268 14.7836C11.0903 14.9115 11.571 14.769 11.9885 14.3803C12.402 13.995 12.8112 13.604 13.2467 13.2433C13.9571 12.6547 14.7405 12.6362 15.5471 13.0388C15.8118 13.1709 16.0769 13.3158 16.309 13.4961C17.1403 14.1418 17.996 14.7651 18.6365 15.6131C19.1659 16.3139 19.1235 16.9919 18.4669 17.5783C17.8503 18.1288 17.2652 18.7191 16.5344 19.1375C15.2546 19.8702 13.8809 20.1237 12.4189 19.945C10.8555 19.7539 9.47201 19.119 8.18355 18.2625C6.48157 17.1314 5.05645 15.709 3.74875 14.166C2.58635 12.7945 1.5606 11.3363 0.834496 9.69163C0.331443 8.55279 0.000786777 7.36927 1.37054e-06 6.1218C-0.00117674 4.07105 0.757133 2.3578 2.41238 1.05985C2.65585 0.869149 2.87027 0.639919 3.12474 0.465781C3.38668 0.286634 3.68081 0.153334 3.9612 0C4.10729 0 4.25377 0 4.39946 0Z" fill="#1F212E"/>
</svg>
