<svg width="8" height="8" viewBox="0 0 8 8" fill="none" xmlns="http://www.w3.org/2000/svg">
<path fill-rule="evenodd" clip-rule="evenodd" d="M4 0C4.24546 0 4.44444 0.198985 4.44444 0.444444V3.55556H7.55556C7.80102 3.55556 8 3.75454 8 4C8 4.24546 7.80102 4.44444 7.55556 4.44444H4.44444V7.55556C4.44444 7.80102 4.24546 8 4 8C3.75454 8 3.55556 7.80102 3.55556 7.55556V4.44444H0.444444C0.198985 4.44444 0 4.24546 0 4C0 3.75454 0.198985 3.55556 0.444444 3.55556H3.55556V0.444444C3.55556 0.198985 3.75454 0 4 0Z" fill="black"/>
</svg>
