<svg width="34" height="34" viewBox="0 0 34 34" fill="none" xmlns="http://www.w3.org/2000/svg">
<path fill-rule="evenodd" clip-rule="evenodd" d="M8.44975 8.55025C8.96827 8.03173 9.80895 8.03173 10.3275 8.55025L16.8995 15.1223L23.4715 8.55025C23.99 8.03173 24.8307 8.03173 25.3492 8.55025C25.8678 9.06877 25.8678 9.90945 25.3492 10.428L18.7772 17L25.3492 23.572C25.8678 24.0905 25.8678 24.9312 25.3492 25.4497C24.8307 25.9683 23.99 25.9683 23.4715 25.4497L16.8995 18.8777L10.3275 25.4497C9.80895 25.9683 8.96827 25.9683 8.44975 25.4497C7.93123 24.9312 7.93123 24.0905 8.44975 23.572L15.0218 17L8.44975 10.428C7.93123 9.90946 7.93123 9.06877 8.44975 8.55025Z" fill="#FF004C"/>
</svg>
