<svg width="24" height="20" viewBox="0 0 24 20" fill="none" xmlns="http://www.w3.org/2000/svg">
<path d="M0 7.24109C0 6.90465 0 6.56822 0 6.23178C0.0140811 6.15372 0.0334425 6.07676 0.0422432 5.99814C0.173666 4.78378 0.58143 3.66453 1.31717 2.65027C2.80741 0.596467 5.54735 -0.413392 8.12829 0.15943C9.60856 0.48817 10.7661 1.28473 11.7149 2.3732C11.8058 2.47765 11.8932 2.5854 11.9818 2.6915C12.0199 2.66236 12.034 2.65467 12.0434 2.64367C12.1209 2.55187 12.1948 2.45731 12.2746 2.36771C13.9121 0.520055 15.9732 -0.339178 18.5336 0.123147C21.0037 0.569531 22.6482 1.99499 23.496 4.17468C24.433 6.58471 24.0323 8.8771 22.5537 11.0172C21.7329 12.2046 20.7279 13.2491 19.6085 14.1853C17.4124 16.0209 15.1847 17.8218 12.9616 19.6288C12.3309 20.1417 11.6304 20.118 10.9732 19.5892C9.2624 18.2116 7.55038 16.835 5.8495 15.4464C4.41734 14.2777 3.02801 13.0672 1.88745 11.6329C1.14526 10.7 0.549748 9.6929 0.253459 8.5533C0.141397 8.12231 0.0833129 7.67923 0.000586711 7.24109H0Z" fill="#00FFCF"/>
</svg>
