<svg width="14" height="15" viewBox="0 0 14 15" fill="none" xmlns="http://www.w3.org/2000/svg">
<path d="M7.51655 2.97813C7.79897 3.24595 8.0853 3.50998 8.36235 3.783C8.53434 3.95287 8.58369 4.16295 8.49525 4.38818C8.4073 4.61152 8.23189 4.73975 7.98563 4.76388C7.7765 4.78423 7.61086 4.69669 7.46525 4.55427C6.94194 4.0423 6.41521 3.53364 5.88946 3.0245C5.81617 2.95353 5.73799 2.88728 5.66421 2.81725C5.40475 2.56979 5.39498 2.21491 5.65101 1.96602C6.26227 1.37266 6.87647 0.781669 7.4931 0.193043C7.75744 -0.0591571 8.1156 -0.0624693 8.35893 0.172697C8.60128 0.40739 8.59737 0.756118 8.34036 1.01163C8.09556 1.25531 7.84295 1.4919 7.60206 1.72375C8.09263 1.83448 8.58516 1.89835 9.04348 2.05639C11.6908 2.96914 13.2705 4.77477 13.616 7.47942C14.0455 10.8422 11.6977 13.8885 8.26218 14.5458C4.65081 15.2361 1.09173 12.8977 0.451151 9.37683C0.0353375 7.08905 0.724776 5.1216 2.43445 3.49247C2.74228 3.1991 3.09897 3.18538 3.35354 3.44279C3.60811 3.70067 3.5739 4.04466 3.26314 4.33046C2.27809 5.23611 1.68393 6.3438 1.56422 7.65023C1.38001 9.66074 2.1276 11.3149 3.81772 12.496C7.04699 14.7525 11.5599 13.0255 12.3671 9.25239C13.0037 6.27661 10.8499 3.34389 7.73448 2.94596C7.66949 2.93744 7.60402 2.93555 7.53854 2.93082C7.53121 2.94643 7.52339 2.96252 7.51607 2.97813H7.51655Z" fill="#AD00FF"/>
</svg>
