<svg width="20" height="18" viewBox="0 0 20 18" fill="none" xmlns="http://www.w3.org/2000/svg">
<path d="M19.0836 10.9059C18.8539 11.3634 18.6286 11.4554 18.1274 11.296C17.792 11.1892 17.4571 11.0825 17.1222 10.9738C16.745 10.8514 16.5634 10.5316 16.6748 10.1913C16.7849 9.85588 17.1265 9.70215 17.5042 9.82124C17.8343 9.92516 18.1601 10.0428 18.4931 10.1344C18.7703 10.2108 18.9745 10.3551 19.0831 10.6217V10.9059H19.0836Z" fill="#00A3FF"/>
<path d="M16.7851 6.30747C16.7817 6.71411 16.6183 7.05053 16.3252 7.3319C15.6376 7.9924 14.9529 8.65527 14.2639 9.31387C14.1827 9.39168 14.1572 9.45954 14.1784 9.57531C14.348 10.5181 14.5099 11.4629 14.6689 12.4076C14.7641 12.9732 14.5752 13.4405 14.114 13.7803C13.6455 14.1257 13.1289 14.1694 12.6071 13.9055C11.7763 13.4851 10.9499 13.0553 10.1292 12.6154C9.94466 12.5162 9.80724 12.5162 9.6232 12.6154C8.82413 13.0453 8.01593 13.4581 7.21061 13.8766C6.68158 14.1513 6.15831 14.1452 5.66676 13.8026C5.20836 13.4832 4.99838 13.0306 5.07142 12.4787C5.13773 11.981 5.23864 11.4875 5.32465 10.9922C5.40969 10.5025 5.50003 10.0142 5.57547 9.52312C5.58508 9.46001 5.53607 9.36796 5.48513 9.31861C4.78985 8.64103 4.08351 7.97437 3.39159 7.29252C2.73907 6.64911 2.84526 5.58719 3.61598 5.11269C3.81251 4.9917 4.05468 4.91862 4.2858 4.88209C5.21413 4.73499 6.14534 4.6083 7.07655 4.48114C7.19283 4.46548 7.25289 4.41946 7.30335 4.31791C7.72859 3.45718 8.15335 2.59645 8.59013 1.74141C9.07351 0.795742 10.3713 0.668103 11.0099 1.49894C11.0854 1.59716 11.1454 1.7082 11.2012 1.81875C11.6163 2.64485 12.03 3.47142 12.4389 4.30036C12.4942 4.41186 12.5586 4.46453 12.6907 4.48256C13.6695 4.61637 14.6478 4.75445 15.6237 4.90581C16.3007 5.01115 16.787 5.61281 16.7846 6.30699L16.7851 6.30747Z" fill="#00A3FF"/>
<path d="M1.41755 11.3702C0.991343 11.3726 0.745807 11.178 0.68094 10.8905C0.619916 10.621 0.759261 10.3201 1.03026 10.2229C1.47857 10.0615 1.93409 9.91587 2.39296 9.78586C2.6582 9.71089 2.95131 9.88835 3.06038 10.1474C3.17041 10.4093 3.10362 10.7524 2.8456 10.862C2.34395 11.0751 1.81732 11.2312 1.41803 11.3702H1.41755Z" fill="#00A3FF"/>
<path d="M14.7322 2.20929C14.4972 2.20597 14.3175 2.10395 14.2017 1.90419C14.0859 1.70348 14.0782 1.48901 14.2103 1.29921C14.4674 0.929581 14.7317 0.563746 15.0118 0.211196C15.2117 -0.0402855 15.5778 -0.0649593 15.8359 0.125313C16.0838 0.307993 16.1655 0.65817 15.9896 0.91677C15.7364 1.28877 15.4644 1.64891 15.1901 2.00668C15.0805 2.14951 14.9167 2.21261 14.7312 2.20977L14.7322 2.20929Z" fill="#00A3FF"/>
<path d="M5.06897 2.20915C4.81479 2.20868 4.65046 2.13181 4.53321 1.9757C4.27999 1.63929 4.02821 1.30192 3.78507 0.957912C3.58807 0.678909 3.65198 0.315921 3.91865 0.121853C4.19494 -0.0788586 4.56349 -0.0276132 4.77779 0.253287C5.02957 0.583061 5.27415 0.919003 5.51584 1.25637C5.65951 1.45661 5.6744 1.67535 5.55572 1.89172C5.44088 2.10097 5.25685 2.20583 5.06897 2.20868V2.20915Z" fill="#00A3FF"/>
<path d="M10.4884 16.1219C10.4884 16.3174 10.4908 16.5124 10.488 16.7079C10.4827 17.07 10.2184 17.3362 9.87051 17.3333C9.53128 17.3305 9.26797 17.0657 9.2646 16.715C9.26076 16.3127 9.26076 15.9103 9.2646 15.5079C9.26797 15.1592 9.53464 14.892 9.87243 14.8897C10.2088 14.8873 10.4803 15.1544 10.4875 15.5008C10.4918 15.7077 10.4884 15.915 10.4884 16.1219Z" fill="#00A3FF"/>
</svg>
