<svg width="18" height="17" viewBox="0 0 18 17" fill="none" xmlns="http://www.w3.org/2000/svg">
<path d="M0 5.62875C0.976674 5.62875 1.91296 4.8834 1.96803 3.67908H2.95205C2.97408 4.20413 3.15399 4.67044 3.52851 5.04495C3.90669 5.42314 4.36933 5.60672 4.90907 5.63242V6.62011C4.38034 6.64214 3.91404 6.82206 3.53952 7.19657C3.16134 7.57109 2.97408 8.03739 2.95572 8.57713H1.96803C1.93866 7.98232 1.72203 7.47929 1.26674 7.09376C0.90324 6.78167 0.477322 6.62746 0 6.62378V5.62508V5.62875Z" fill="#00FFCF"/>
<path d="M10.0055 16.9962C9.97608 15.5276 10.0201 14.0626 10.3359 12.6196C10.67 11.0848 11.2061 9.62714 12.0616 8.30165C12.1093 8.22822 12.1607 8.15478 12.2232 8.06299C12.4949 8.25025 12.7629 8.43016 13.042 8.62109C12.9906 8.70187 12.9428 8.7753 12.8988 8.84873C12.0433 10.1926 11.5329 11.6686 11.2391 13.2254C11.0042 14.4738 10.9858 15.7332 11.0078 16.9962H10.0091H10.0055Z" fill="#00FFCF"/>
<path d="M6.01801 16.9962C6.04371 15.6487 6.01067 14.3086 5.73896 12.9831C5.47827 11.7127 4.98626 10.1228 3.98389 8.62476C4.25192 8.44117 4.51628 8.25759 4.79901 8.06299C4.89447 8.20986 4.98993 8.34571 5.07438 8.48524C5.92255 9.8658 6.44026 11.3639 6.74868 12.9464C7.00937 14.2865 7.03507 15.6377 7.01304 16.9962H6.01434H6.01801Z" fill="#00FFCF"/>
<path d="M0 15.267C0.0550756 15.1128 0.0954643 14.9512 0.168898 14.8043C0.480993 14.1765 1.21533 13.8607 1.8946 14.048C2.87495 14.316 3.39633 15.5497 2.60324 16.5484C2.39395 16.8128 2.06717 16.9266 1.73304 16.967C1.68531 16.9706 1.64125 16.989 1.59352 17H1.39525C1.35853 16.989 1.32181 16.978 1.2851 16.9706C0.844492 16.9046 0.492009 16.6953 0.260691 16.3208C0.146868 16.1408 0.0881209 15.9242 0.00734341 15.7223L0 15.2706L0 15.267Z" fill="#00FFCF"/>
<path d="M15.4249 16.9963C15.3405 16.9779 15.2523 16.9596 15.1679 16.9375C14.3858 16.7392 13.9158 16.0012 14.059 15.2081C14.1986 14.4408 14.9145 13.9194 15.715 14.0075C16.7761 14.1213 17.4921 15.4431 16.6439 16.53C16.4346 16.8017 16.1005 16.9265 15.7627 16.9669C15.715 16.9706 15.6709 16.9889 15.6232 16.9999H15.4249V16.9963Z" fill="#00FFCF"/>
<path d="M12.0065 16.9707C11.9992 16.0674 11.9551 15.1605 12.1681 14.2756C12.2525 13.9195 12.4177 13.578 12.6123 13.2696C13.9525 11.1363 13.7506 11.3713 13.9415 11.1987L14.5987 11.8927C14.3491 12.2121 14.081 12.5132 13.8607 12.84C13.2916 13.6881 13.0126 14.6354 12.9979 15.6562C12.9905 16.1041 13.0052 16.5521 12.9905 16.9964L12.0065 16.9707Z" fill="#00FFCF"/>
<path d="M4.02423 16.9963C4.02423 16.3428 4.04259 15.6892 3.88471 15.0466C3.64972 14.0957 3.1981 13.2659 2.50782 12.5682C2.48212 12.5425 2.45274 12.5132 2.42704 12.4838C2.4197 12.4764 2.4197 12.4654 2.41235 12.4507C2.63266 12.2194 2.85296 11.9881 3.09529 11.7274C3.30458 11.9661 3.51754 12.1864 3.70479 12.4287C4.5603 13.5376 4.99723 14.797 5.01926 16.1996C5.02294 16.4639 5.01926 16.732 5.01926 16.9963H4.02056H4.02423Z" fill="#00FFCF"/>
<path d="M0.987689 10.4828H0V11.4815H0.987689V10.4828Z" fill="#00FFCF"/>
<path d="M6.65309 5.68013C6.65309 5.15507 6.63841 4.65939 6.66044 4.16739C6.67145 3.88466 6.58333 3.60561 6.40709 3.38531C6.10234 2.99978 5.82696 2.58855 5.52588 2.16998C5.59564 2.14428 5.64705 2.12592 5.70212 2.10756C6.20882 1.93866 6.71918 1.77711 7.22221 1.60086C7.31033 1.57149 7.38743 1.51274 7.44618 1.43931C7.76929 1.00972 8.08506 0.576458 8.4045 0.143197C8.43754 0.0991361 8.47059 0.0587473 8.51465 0C8.59175 0.102808 8.66152 0.190929 8.72761 0.282721C9.01033 0.66825 9.28938 1.05378 9.57944 1.43564C9.63819 1.51274 9.71529 1.56782 9.80709 1.60086C10.3615 1.79179 10.9159 1.97171 11.4924 2.16263C11.4594 2.21404 11.4373 2.25443 11.4116 2.29482C11.1032 2.72808 10.7874 3.15399 10.4864 3.59093C10.4166 3.69006 10.3799 3.80756 10.3762 3.92505C10.3615 4.44276 10.3652 4.96047 10.3652 5.48186C10.3652 5.5406 10.3615 5.59935 10.3578 5.68013C9.96864 5.55529 9.58311 5.4635 9.22696 5.31296C8.77167 5.11836 8.26497 5.11836 7.80968 5.31296C7.44985 5.46717 7.068 5.55529 6.65309 5.68747V5.68013Z" fill="#00FFCF"/>
<path d="M15.0541 8.58078H14.0811C13.9526 7.3985 13.299 6.73759 12.1094 6.60908V5.63975C12.6344 5.61405 13.1007 5.44148 13.4789 5.06696C13.8571 4.69245 14.0444 4.22981 14.0701 3.6864H15.0578C15.0798 4.20778 15.2597 4.67042 15.6342 5.0486C16.0087 5.42679 16.4714 5.61405 17.0148 5.63608V6.62009C16.4934 6.64212 16.0271 6.82204 15.6489 7.19655C15.2707 7.57107 15.0835 8.0337 15.0614 8.58446L15.0541 8.58078Z" fill="#00FFCF"/>
<path d="M8.99938 6.89185H8.02271V13.4532H8.99938V6.89185Z" fill="#00FFCF"/>
<path d="M2.94835 0.76001H1.97168V1.74036H2.94835V0.76001Z" fill="#00FFCF"/>
<path d="M15.0504 0.756348H14.0737V1.73302H15.0504V0.756348Z" fill="#00FFCF"/>
<path d="M17.0074 10.4828H16.0344V11.4668H17.0074V10.4828Z" fill="#00FFCF"/>
</svg>
