<svg width="17" height="17" viewBox="0 0 17 17" fill="none" xmlns="http://www.w3.org/2000/svg">
<path d="M8.63272 0C8.66088 0.0176036 8.68553 0.0352072 8.71369 0.0492901C8.92494 0.161953 9.0376 0.383759 8.98831 0.598523C8.9355 0.83089 8.73482 0.996364 8.50245 0.996364C8.27008 0.996364 8.0694 0.83089 8.01659 0.598523C7.9673 0.383759 8.07644 0.161953 8.29121 0.0492901C8.31937 0.0352072 8.34402 0.0176036 8.37218 0C8.4602 0 8.54822 0 8.63624 0L8.63272 0Z" fill="#00FFCF"/>
<path d="M6.42546 1.26388C6.15084 1.26388 5.93256 1.03855 5.93608 0.763938C5.93608 0.489322 6.16492 0.267517 6.43602 0.271037C6.70359 0.274558 6.93244 0.506926 6.92892 0.7745C6.92892 1.0456 6.70007 1.2674 6.42546 1.26388Z" fill="#00FFCF"/>
<path d="M11.0655 0.778016C11.062 1.05263 10.8402 1.2674 10.5621 1.26388C10.291 1.26388 10.0656 1.02799 10.0727 0.760412C10.0797 0.492838 10.3121 0.263991 10.5797 0.271032C10.8507 0.278074 11.069 0.5034 11.0655 0.778016Z" fill="#00FFCF"/>
<path d="M0 8.36879C0.0211243 8.33358 0.0457694 8.29485 0.0668937 8.25964C0.183077 8.06248 0.408404 7.9639 0.616126 8.02024C0.841452 8.08009 0.996364 8.27725 0.996364 8.50257C0.996364 8.7279 0.841452 8.92506 0.616126 8.98491C0.408404 9.04125 0.183077 8.94266 0.0668937 8.7455C0.0457694 8.7103 0.024645 8.67157 0 8.63636C0 8.54834 0 8.46033 0 8.37231L0 8.36879Z" fill="#00FFCF"/>
<path d="M14.3117 8.49195C14.3153 11.6888 11.7134 14.3011 8.51311 14.3082C5.30926 14.3152 2.68984 11.6993 2.69336 8.49547C2.69336 5.29513 5.30222 2.6898 8.50255 2.68628C11.7029 2.68628 14.3117 5.28809 14.3153 8.48843L14.3117 8.49195ZM8.48847 13.3118C11.1396 13.3189 13.3083 11.1642 13.3154 8.50955C13.3224 5.85845 11.1677 3.68968 8.51311 3.68264C5.86201 3.6756 3.69325 5.83028 3.68621 8.48491C3.67916 11.136 5.83737 13.3048 8.48847 13.3118Z" fill="#00FFCF"/>
<path d="M16.9979 8.49904C16.9979 8.76662 16.7761 8.99547 16.505 8.99899C16.2304 8.99899 15.998 8.77014 16.0015 8.49552C16.0015 8.22795 16.2339 8.00262 16.5014 8.00614C16.769 8.00614 16.9943 8.23147 16.9979 8.50257V8.49904Z" fill="#00FFCF"/>
<path d="M8.50596 16.0052C8.77354 16.0052 8.99887 16.2341 8.99887 16.5052C8.99887 16.7798 8.76298 17.0087 8.48836 17.0016C8.22079 16.9946 7.99898 16.7622 8.00602 16.4946C8.01306 16.2271 8.24191 16.0052 8.50949 16.0088L8.50596 16.0052Z" fill="#00FFCF"/>
<path d="M1.264 6.43942C1.26048 6.71051 1.02811 6.93584 0.760535 6.9288C0.49296 6.92176 0.264113 6.68587 0.271154 6.42181C0.278196 6.15072 0.503522 5.93243 0.778138 5.93596C1.05275 5.93948 1.26752 6.16128 1.264 6.43942Z" fill="#00FFCF"/>
<path d="M1.264 10.5798C1.26048 10.8544 1.03867 11.0692 0.760537 11.0656C0.489442 11.0621 0.264115 10.8297 0.271157 10.5622C0.278198 10.2946 0.514087 10.0657 0.778141 10.0728C1.04924 10.0798 1.26752 10.3052 1.264 10.5798Z" fill="#00FFCF"/>
<path d="M5.93604 16.227C5.93604 15.9524 6.15784 15.7341 6.43246 15.7341C6.70707 15.7341 6.92888 15.9595 6.92888 16.2306C6.92888 16.4981 6.69299 16.7305 6.42894 16.727C6.15784 16.727 5.93604 16.4981 5.93956 16.2235L5.93604 16.227Z" fill="#00FFCF"/>
<path d="M16.2306 11.0656C15.9524 11.0656 15.7341 10.8473 15.7341 10.5727C15.7341 10.2981 15.9559 10.0728 16.227 10.0728C16.4946 10.0728 16.727 10.3016 16.727 10.5692C16.727 10.8403 16.5052 11.0621 16.2306 11.0656Z" fill="#00FFCF"/>
<path d="M10.5726 15.7341C10.8472 15.7341 11.0655 15.9524 11.0655 16.2306C11.0655 16.5052 10.8437 16.7305 10.5726 16.7305C10.305 16.7305 10.0762 16.4981 10.0762 16.2306C10.0762 15.9595 10.3015 15.7377 10.5761 15.7377L10.5726 15.7341Z" fill="#00FFCF"/>
<path d="M2.84481 3.34113C2.57371 3.34113 2.34839 3.11932 2.34839 2.84823C2.34839 2.57361 2.56315 2.35181 2.83777 2.35181C3.11239 2.35181 3.33771 2.57009 3.33771 2.84119C3.33771 3.10876 3.11238 3.34113 2.84481 3.34113Z" fill="#00FFCF"/>
<path d="M14.6533 2.84483C14.6533 3.11945 14.4244 3.34125 14.1533 3.33773C13.8822 3.33773 13.6569 3.10537 13.6604 2.83427C13.6604 2.56317 13.8893 2.34137 14.1639 2.34489C14.4385 2.34489 14.6568 2.5667 14.6533 2.84483Z" fill="#00FFCF"/>
<path d="M16.2376 5.93596C16.5123 5.93948 16.7341 6.16832 16.727 6.43942C16.72 6.70699 16.4841 6.93584 16.22 6.9288C15.9489 6.92176 15.7307 6.69643 15.7342 6.42181C15.7377 6.1472 15.963 5.93244 16.2376 5.93596Z" fill="#00FFCF"/>
<path d="M2.83777 13.6604C3.10534 13.6604 3.33771 13.8822 3.34123 14.1533C3.34123 14.4244 3.12295 14.6497 2.84833 14.6532C2.57371 14.6532 2.35191 14.4385 2.34839 14.1639C2.34839 13.8892 2.56667 13.6639 2.83777 13.6604Z" fill="#00FFCF"/>
<path d="M14.1639 13.6604C14.435 13.6604 14.6568 13.8893 14.6533 14.1639C14.6533 14.4385 14.4315 14.6568 14.1533 14.6533C13.8787 14.6533 13.6569 14.4244 13.6604 14.1533C13.6604 13.8822 13.8928 13.6569 14.1639 13.6604Z" fill="#00FFCF"/>
<path d="M4.50312 2.06316C4.2285 2.06316 4.00669 1.84839 4.00317 1.57378C4.00317 1.30268 4.22498 1.07383 4.49255 1.07031C4.76013 1.07031 4.98898 1.29212 4.9925 1.56321C4.9925 1.83783 4.77773 2.05963 4.50312 2.06316Z" fill="#00FFCF"/>
<path d="M12.5056 2.06316C12.2309 2.06316 12.0091 1.84839 12.0056 1.57378C12.0056 1.30268 12.2274 1.07383 12.495 1.07031C12.7626 1.07031 12.9914 1.29212 12.9949 1.56321C12.9949 1.83783 12.7802 2.05963 12.5056 2.06316Z" fill="#00FFCF"/>
<path d="M4.49255 14.9349C4.77069 14.9349 4.98898 15.1497 4.9925 15.4243C4.9925 15.6954 4.77421 15.9243 4.50312 15.9278C4.23554 15.9313 4.00669 15.706 4.00317 15.4349C4.00317 15.1603 4.21794 14.9385 4.49255 14.9349Z" fill="#00FFCF"/>
<path d="M12.495 14.9349C12.7731 14.9349 12.9914 15.1497 12.9949 15.4243C12.9949 15.6954 12.7767 15.9243 12.5056 15.9278C12.238 15.9313 12.0091 15.706 12.0056 15.4349C12.0056 15.1603 12.2204 14.9385 12.495 14.9349Z" fill="#00FFCF"/>
<path d="M2.06316 4.4996C2.06316 4.77421 1.84487 4.99602 1.57025 4.99602C1.29916 4.99602 1.07031 4.77069 1.07031 4.4996C1.07031 4.2285 1.29564 4.00669 1.57025 4.00317C1.84487 4.00317 2.06316 4.22146 2.06316 4.49607V4.4996Z" fill="#00FFCF"/>
<path d="M14.9349 4.49607C14.9349 4.22146 15.1567 4.00317 15.4313 4.00317C15.706 4.00317 15.9278 4.2285 15.9278 4.4996C15.9278 4.77069 15.6989 4.9925 15.4243 4.9925C15.1497 4.9925 14.9314 4.77069 14.9314 4.49607H14.9349Z" fill="#00FFCF"/>
<path d="M2.06295 12.5056C2.06295 12.7802 1.83763 12.9985 1.56301 12.995C1.29191 12.995 1.06659 12.7626 1.07011 12.495C1.07363 12.2239 1.30248 12.0021 1.57357 12.0057C1.84819 12.0057 2.06647 12.231 2.06295 12.5056Z" fill="#00FFCF"/>
<path d="M14.9351 12.4915C14.9351 12.2169 15.1639 11.9986 15.4385 12.0057C15.7131 12.0092 15.9349 12.238 15.9314 12.5091C15.9244 12.7802 15.6991 13.002 15.4244 12.995C15.1498 12.9915 14.9351 12.7697 14.9386 12.4915H14.9351Z" fill="#00FFCF"/>
<path d="M8.50247 5.34446C6.76324 5.34446 5.34439 6.75979 5.34791 8.49903C5.34791 10.2383 6.77028 11.6536 8.50951 11.6501C10.2487 11.6501 11.6606 10.2277 11.657 8.48495C11.6535 6.75275 10.2382 5.34094 8.50599 5.34094L8.50247 5.34446Z" fill="#00FFCF"/>
</svg>
