<svg width="17" height="17" viewBox="0 0 17 17" fill="none" xmlns="http://www.w3.org/2000/svg">
<path d="M3.72282 0C5.17653 1.72439 6.63023 3.44879 8.08728 5.17653C9.4307 6.77059 10.7775 8.36131 12.1209 9.95871C12.1978 10.0489 12.2479 10.069 12.3648 10.0155C13.1234 9.64792 14.0257 9.79831 14.5838 10.3631C13.1836 11.7633 11.78 13.1669 10.3664 14.5805C10.1225 14.3466 9.95203 14.0257 9.87183 13.6581C9.77491 13.207 9.81836 12.7659 10.0256 12.3515C10.0723 12.2546 10.069 12.2044 9.98211 12.1309C6.71044 9.37389 3.44545 6.61686 0.173776 3.85984C0.0568115 3.76292 0 3.66601 0 3.50226C0.0100256 2.33595 0.00334185 1.16631 0.00334185 0C1.24317 0 2.48299 0 3.72282 0ZM1.82799 2.46629C3.00098 3.63928 4.18065 4.81895 5.33025 5.96854C5.54413 5.75801 5.77472 5.53076 5.9886 5.31688C4.82563 4.15392 3.6493 2.97759 2.48299 1.81128C2.26577 2.0285 2.04187 2.25241 1.82799 2.46629Z" fill="#00FFCF"/>
<path d="M17.0033 3.71948C15.2856 5.1665 13.5712 6.61686 11.8368 8.07725C10.9446 7.01789 10.0556 5.96186 9.15332 4.89581C10.5335 3.26165 11.9103 1.63082 13.2872 0C14.527 0 15.7668 0 17.0067 0V3.71948H17.0033ZM14.5304 1.8046C13.3507 2.98761 12.1744 4.16395 11.008 5.32691C11.2286 5.54747 11.4592 5.77472 11.6697 5.98525C12.8394 4.81561 14.0191 3.63593 15.192 2.46294C14.9782 2.24907 14.7543 2.02516 14.5304 1.80126V1.8046Z" fill="#00FFCF"/>
<path d="M17.0034 17H14.0158C14.0158 16.8295 14.0158 16.6725 14.0158 16.5121C14.0158 16.2013 14.0091 15.8938 14.0158 15.583C14.0191 15.4594 13.979 15.3792 13.8921 15.2956C13.4309 14.8411 12.9764 14.3833 12.532 13.9388C12.9998 13.4676 13.4644 13.0031 13.9456 12.5186C14.0392 12.6155 14.1461 12.7324 14.2597 12.8461C14.614 13.2036 14.9682 13.5612 15.3291 13.9121C15.3859 13.9656 15.4795 14.0057 15.5564 14.0057C16.0376 14.0157 16.5188 14.009 17 14.009V16.9966L17.0034 17Z" fill="#00FFCF"/>
<path d="M2.42627 10.3664C2.92086 9.8217 3.85658 9.64124 4.58845 9.9888C4.75888 10.069 4.83909 10.0389 4.936 9.90191C5.0396 9.75821 5.16325 9.63122 5.29024 9.48083C6.10231 10.1626 6.90435 10.841 7.72979 11.5361C7.4992 11.7299 7.28198 11.9237 7.05473 12.1008C6.94779 12.1844 6.93777 12.2445 6.99792 12.3715C7.3555 13.1235 7.19843 14.0291 6.64034 14.5772C5.24011 13.1769 3.83653 11.7733 2.42627 10.3631V10.3664Z" fill="#00FFCF"/>
<path d="M3.07456 12.5253C3.54911 12.9998 4.01028 13.461 4.49151 13.9422C4.35115 14.0759 4.19742 14.2162 4.04704 14.3633C3.72622 14.6808 3.40206 15.0016 3.08793 15.3291C3.03446 15.3859 2.9977 15.4795 2.99436 15.5563C2.98433 16.0309 2.99102 16.5054 2.99102 16.99H0.0134277V14.0124H0.167153C0.591568 14.0124 1.01932 14.0191 1.44374 14.009C1.52394 14.009 1.6242 13.9656 1.68435 13.9088C2.11545 13.4877 2.53987 13.06 2.96428 12.6356C3.00438 12.5954 3.04449 12.562 3.07456 12.532V12.5253Z" fill="#00FFCF"/>
</svg>
