<svg width="17" height="17" viewBox="0 0 17 17" fill="none" xmlns="http://www.w3.org/2000/svg">
<path d="M12.3959 6.35308C11.9033 6.45982 11.4092 6.55869 10.9191 6.67526C10.2187 6.84201 9.53039 7.04368 8.88231 7.37275C8.0182 7.81101 7.43308 8.50111 7.06351 9.39535C6.66391 10.3619 6.46484 11.383 6.26576 12.4047C6.25026 12.4848 6.23379 12.565 6.18778 12.6467C6.14612 12.4327 6.10689 12.2187 6.0633 12.0052C5.88457 11.1356 5.69276 10.2704 5.36242 9.44208C4.93763 8.37814 4.20769 7.63197 3.16098 7.19961C2.21598 6.80905 1.22352 6.60296 0.228144 6.40473C0.153552 6.38998 0.0789594 6.37374 0.000976562 6.32603C0.204895 6.28471 0.408812 6.24438 0.61273 6.20208C1.47539 6.02254 2.33223 5.82579 3.15274 5.48787C4.20575 5.05354 4.93957 4.3054 5.36484 3.23458C5.7596 2.24148 5.96158 1.1987 6.16453 0.154934C6.1718 0.118043 6.18439 0.0826282 6.20667 0.000976562C6.31081 0.50761 6.39848 0.969484 6.50213 1.42791C6.6736 2.18393 6.87655 2.92912 7.22142 3.62808C7.65153 4.49969 8.32771 5.08994 9.20102 5.46426C10.1417 5.86711 11.1356 6.06976 12.1305 6.26897C12.2201 6.28717 12.3097 6.30636 12.3998 6.32505C12.3983 6.33439 12.3973 6.34374 12.3959 6.35259V6.35308Z" fill="#00FFCF"/>
<path d="M13.0293 17.001C12.9387 16.5873 12.8719 16.1667 12.7503 15.7629C12.6273 15.3546 12.4839 14.9444 12.2877 14.5681C11.9729 13.9641 11.4197 13.6355 10.7949 13.4457C10.2413 13.2774 9.67553 13.1505 9.10059 13.0015C9.37474 12.944 9.64744 12.9017 9.91141 12.8274C10.3343 12.7088 10.762 12.5947 11.1693 12.4324C11.9428 12.1245 12.3909 11.5037 12.619 10.7177C12.7668 10.2086 12.8694 9.68625 12.9925 9.17027C13.0041 9.12157 13.0167 9.07337 13.0375 8.98926C13.1397 9.45064 13.2245 9.87857 13.331 10.3011C13.4618 10.8181 13.6372 11.3188 13.9743 11.7428C14.3206 12.1786 14.7851 12.4344 15.299 12.5878C15.8003 12.7374 16.3142 12.8431 16.8223 12.9681C16.8703 12.9799 16.9178 12.9927 16.9996 13.0133C16.5467 13.1171 16.1205 13.1889 15.7112 13.3158C15.3198 13.4373 14.9275 13.5819 14.5671 13.7767C13.9723 14.0979 13.6493 14.6586 13.4633 15.2937C13.2981 15.8564 13.1722 16.4309 13.0288 17.0019L13.0293 17.001Z" fill="#00FFCF"/>
</svg>
