<svg width="17" height="17" viewBox="0 0 17 17" fill="none" xmlns="http://www.w3.org/2000/svg">
<path d="M0.376989 16.7414C-4.25456e-05 16.5547 -0.076913 16.3607 0.069507 15.9654C0.442878 14.9734 0.812589 13.9814 1.18596 12.9894C1.20426 12.9418 1.22623 12.8943 1.25917 12.8101C1.73503 13.9265 2.3866 14.8856 3.24316 15.7311C3.17727 15.7604 3.12969 15.7824 3.0821 15.8007C2.28411 16.1008 1.48612 16.401 0.684471 16.7012C0.655187 16.7122 0.629564 16.7305 0.60028 16.7451H0.369668L0.376989 16.7414Z" fill="#00FFCF"/>
<path d="M5.02216 4.8374C5.62248 5.43772 6.20816 6.0234 6.78652 6.61274C6.82678 6.65301 6.84142 6.74086 6.83776 6.80309C6.73527 8.66995 7.16721 10.4014 8.15554 11.9827C8.45571 12.4659 8.84006 12.8942 9.18781 13.3481C9.21709 13.3847 9.25003 13.4213 9.29396 13.4689C9.21343 13.5018 9.14388 13.5274 9.07067 13.5567C8.53624 13.758 8.0018 13.9557 7.47103 14.1607C7.38318 14.1936 7.32461 14.1863 7.2514 14.1278C5.6115 12.766 4.64512 11.031 4.38889 8.91154C4.22417 7.55349 4.43282 6.24303 4.95627 4.98382C4.97091 4.94356 4.99287 4.90695 5.02216 4.84106V4.8374Z" fill="#00FFCF"/>
<path d="M6.28138 14.6C5.62615 14.8453 4.99654 15.0832 4.36328 15.3138C4.31203 15.3321 4.21686 15.2955 4.16927 15.2516C3.10041 14.2999 2.35366 13.1395 1.9144 11.7778C1.82289 11.4959 1.82289 11.247 1.93271 10.9651C2.40491 9.75718 2.85149 8.53457 3.30905 7.31928C3.3237 7.27902 3.33834 7.24241 3.36762 7.20215C3.1846 10.1159 4.14731 12.5758 6.28138 14.6Z" fill="#00FFCF"/>
<path d="M10.619 6.14048C10.5531 5.66461 10.4946 5.19973 10.8716 4.82636C11.2413 4.46031 11.7025 4.51522 12.1784 4.58111C12.1198 4.1089 12.0539 3.64036 12.4273 3.26699C12.8007 2.89362 13.2692 2.95584 13.7414 3.01807C13.6646 2.53489 13.617 2.07 13.994 1.70029C14.3637 1.3379 14.8249 1.38549 15.2752 1.4587C15.2752 1.1805 15.2422 0.913285 15.2862 0.65705C15.3191 0.477685 15.4326 0.29466 15.5534 0.14824C15.7108 -0.0421058 15.9963 -0.0421058 16.1903 0.107975C16.3806 0.254395 16.4465 0.532593 16.3074 0.737581C16.2086 0.88034 16.2196 1.01944 16.2452 1.16952C16.2818 1.36719 16.3221 1.56485 16.3331 1.76618C16.3514 2.24205 16.0768 2.51658 15.601 2.49462C15.3813 2.48364 15.1617 2.42873 14.9421 2.39579C14.6748 2.35552 14.6273 2.40311 14.6748 2.66666C14.7078 2.86067 14.7517 3.05102 14.7737 3.24502C14.8359 3.74651 14.5467 4.07596 14.0416 4.05399C13.811 4.04301 13.5804 3.98444 13.3497 3.95516C13.1082 3.92222 13.0752 3.95516 13.1118 4.19309C13.1411 4.3688 13.1777 4.5445 13.207 4.72387C13.3022 5.33883 12.9398 5.70488 12.3211 5.60605C12.1271 5.57676 11.9368 5.53284 11.7428 5.50355C11.5744 5.47793 11.5305 5.51819 11.5488 5.68658C11.5671 5.85862 11.611 6.03066 11.633 6.20271C11.6476 6.33083 11.6586 6.4626 11.6513 6.59438C11.6293 6.8982 11.4207 7.14346 11.1168 7.1581C10.8496 7.16908 10.5787 7.12149 10.3115 7.08489C10.1615 7.06293 10.0333 7.06293 9.89424 7.15444C9.68925 7.28988 9.41105 7.22765 9.26463 7.0373C9.11821 6.8433 9.12919 6.57242 9.30124 6.39671C9.53917 6.15512 9.84299 6.08191 10.1688 6.09655C10.3079 6.10387 10.4506 6.12584 10.6154 6.14414L10.619 6.14048Z" fill="#00FFCF"/>
<path d="M7.83713 7.66309C7.86642 7.68871 7.89204 7.71067 7.92133 7.73996C9.23911 9.05774 10.5569 10.3755 11.8747 11.6896C12.0064 11.8178 12.0906 11.9642 12.065 12.1545C12.0357 12.3485 11.9259 12.484 11.7429 12.5535C11.3 12.7219 10.857 12.8903 10.4141 13.0477C10.3629 13.066 10.2677 13.033 10.2238 12.9891C9.04876 11.858 8.28738 10.4963 7.96159 8.89667C7.88106 8.49402 7.84079 8.08404 7.78223 7.67773C7.80053 7.67407 7.81883 7.66675 7.83713 7.66309Z" fill="#00FFCF"/>
<path d="M15.0702 6.80688C15.3484 6.85081 15.6705 6.88375 15.9816 6.94964C16.2855 7.01553 16.4392 7.28641 16.3623 7.56461C16.2891 7.83182 16.0292 7.95994 15.7254 7.89039C14.77 7.67808 13.8842 7.88307 13.0715 8.38456C12.7384 8.59321 12.4456 8.86774 12.1308 9.10934C12.0466 9.17523 11.9587 9.24844 11.8599 9.28138C11.6549 9.35093 11.4353 9.25576 11.3218 9.07639C11.2047 8.88971 11.2157 8.64811 11.3731 8.48705C12.1674 7.6854 13.0935 7.10704 14.2209 6.90206C14.4882 6.85447 14.759 6.83983 15.0738 6.80322L15.0702 6.80688Z" fill="#00FFCF"/>
<path d="M9.94189 1.71875C9.88698 3.06581 9.34157 4.18593 8.44841 5.15596C8.3935 5.21453 8.33859 5.27676 8.28002 5.33166C8.07138 5.53665 7.77487 5.54397 7.57721 5.35363C7.3832 5.16328 7.39418 4.87044 7.57721 4.64715C7.86639 4.28842 8.18119 3.94067 8.4118 3.54534C8.88767 2.74003 9.05605 1.86883 8.8291 0.939063C8.76687 0.690149 8.93159 0.430254 9.16952 0.368025C9.42576 0.298476 9.7003 0.430254 9.76253 0.690149C9.84306 1.02692 9.88332 1.37466 9.93823 1.71509L9.94189 1.71875Z" fill="#00FFCF"/>
<path d="M14.9935 10.2C14.9935 10.4745 14.7812 10.6905 14.5103 10.6941C14.2431 10.6941 14.0198 10.4745 14.0161 10.2073C14.0161 9.94009 14.2357 9.7168 14.503 9.7168C14.7738 9.7168 14.9898 9.92911 14.9935 10.2036V10.2Z" fill="#00FFCF"/>
<path d="M6.88899 2.09184C7.16353 2.09184 7.37584 2.31513 7.37218 2.58601C7.36852 2.85323 7.14156 3.07286 6.87435 3.06554C6.60347 3.05822 6.39116 2.83859 6.39482 2.56771C6.39848 2.29683 6.61811 2.08818 6.89265 2.09184H6.88899Z" fill="#00FFCF"/>
<path d="M11.732 2.37018C11.4611 2.37018 11.2451 2.15421 11.2451 1.88333C11.2451 1.61611 11.4647 1.39648 11.7356 1.39648C12.0065 1.39648 12.2225 1.61245 12.2188 1.88699C12.2188 2.16153 12.0065 2.37384 11.732 2.37018Z" fill="#00FFCF"/>
<path d="M15.2056 5.83653C14.9348 5.84019 14.7151 5.62422 14.7115 5.35701C14.7078 5.08979 14.9238 4.8665 15.1947 4.86284C15.4619 4.85918 15.6852 5.07515 15.6888 5.34603C15.6925 5.6169 15.4802 5.83653 15.2093 5.84019L15.2056 5.83653Z" fill="#00FFCF"/>
</svg>
