<svg width="20" height="17" viewBox="0 0 20 17" fill="none" xmlns="http://www.w3.org/2000/svg">
<path d="M2.47594 4.38291C2.33782 3.70724 2.67488 3.36686 3.25397 3.08384C5.23707 2.11496 7.19989 1.10401 9.16778 0.103264C9.44022 -0.0356933 9.69365 -0.0331437 9.96355 0.103264C12.0341 1.15373 14.1071 2.20165 16.1802 3.24575C16.4932 3.40383 16.6478 3.63712 16.6465 3.9979C16.6389 6.20083 16.2765 8.33236 15.3553 10.3441C14.2351 12.7905 12.4472 14.5217 9.904 15.4294C9.67844 15.5097 9.46683 15.5148 9.23747 15.4332C6.49155 14.4567 4.65798 12.5393 3.56189 9.866C2.94605 8.36551 2.62419 6.7949 2.52282 5.17713C2.50635 4.91196 2.49114 4.6468 2.47467 4.38036L2.47594 4.38291ZM9.55173 4.45812C9.38193 4.47469 9.25775 4.56521 9.17918 4.72839C8.98911 5.12231 8.79017 5.51241 8.60263 5.90761C8.51139 6.10139 8.37074 6.2021 8.15786 6.22887C7.75363 6.27987 7.35195 6.34489 6.94899 6.40098C6.74751 6.42902 6.57138 6.48767 6.50042 6.70694C6.43199 6.91856 6.5359 7.06262 6.67782 7.19903C6.98194 7.49224 7.28099 7.7931 7.58384 8.08759C7.72322 8.224 7.77518 8.37571 7.73716 8.57331C7.65606 8.99655 7.59017 9.42235 7.51541 9.84687C7.48246 10.0368 7.50527 10.2064 7.6738 10.3275C7.8322 10.4409 7.99186 10.4206 8.15659 10.3313C8.52153 10.1337 8.89407 9.95268 9.25395 9.74743C9.47063 9.6225 9.66197 9.62633 9.87612 9.74871C10.2297 9.95014 10.5959 10.1299 10.9545 10.3249C11.1255 10.418 11.2903 10.4473 11.4563 10.3249C11.6235 10.2026 11.6425 10.0317 11.6096 9.84177C11.5374 9.4249 11.4753 9.0042 11.3916 8.58988C11.3486 8.37316 11.4094 8.21508 11.5614 8.06847C11.8668 7.77653 12.1659 7.47567 12.4675 7.18118C12.6043 7.04732 12.6905 6.90072 12.6233 6.70184C12.5562 6.50424 12.4016 6.43285 12.214 6.40608C11.8047 6.34743 11.3954 6.27987 10.9836 6.23015C10.7619 6.20338 10.6174 6.10267 10.5224 5.90124C10.3386 5.51241 10.1422 5.12869 9.95595 4.74114C9.87359 4.57031 9.7494 4.47087 9.54919 4.45812H9.55173Z" fill="#00FFCF"/>
<path d="M13.6611 14.6516C14.8155 13.6471 15.7089 12.4207 16.3779 11.0464C17.2941 11.9681 18.2052 12.886 19.1264 13.8128C19.0301 13.851 18.916 13.8995 18.8007 13.9428C18.2128 14.1646 17.6273 14.389 17.0368 14.6032C16.8911 14.6555 16.8062 14.7332 16.753 14.8862C16.5249 15.5275 16.2816 16.1649 16.0447 16.8023C16.0206 16.8673 15.9927 16.9323 15.9737 16.9782C15.2058 16.2057 14.4417 15.4357 13.6624 14.6516H13.6611Z" fill="#00FFCF"/>
<path d="M5.48551 14.6684C4.70368 15.455 3.94085 16.2212 3.16535 17.0001C3.14128 16.9414 3.11213 16.879 3.08806 16.8152C2.84476 16.1638 2.60907 15.5098 2.35564 14.8622C2.31763 14.7653 2.21752 14.662 2.12122 14.6238C1.49778 14.3752 0.868001 14.1444 0.240759 13.9073C0.15586 13.8754 0.0709607 13.841 0 13.813C0.91742 12.89 1.83104 11.9721 2.74973 11.0479C3.41752 12.4183 4.3134 13.6511 5.48551 14.6684Z" fill="#00FFCF"/>
</svg>
