<svg width="17" height="15" viewBox="0 0 17 15" fill="none" xmlns="http://www.w3.org/2000/svg">
<path d="M11.0807 1.89734C10.5189 1.89734 9.987 1.8936 9.4551 1.9016C9.38468 1.90267 9.30679 1.95175 9.24597 1.9971C7.68495 3.16493 6.12447 4.33329 4.56878 5.50806C4.36179 5.66438 4.14839 5.74067 3.88804 5.73586C3.31079 5.72466 2.73301 5.73213 2.14456 5.73213V9.56746H2.32915C2.85518 9.56746 3.38068 9.57439 3.90618 9.56426C4.15212 9.55945 4.35538 9.63148 4.55118 9.77872C6.10259 10.9482 7.65614 12.1144 9.21503 13.2742C9.31639 13.35 9.46471 13.3937 9.59275 13.3974C10.0777 13.4119 10.5637 13.4033 11.0801 13.4033V13.1664C11.0801 10.4973 11.0796 7.82772 11.0801 5.15862C11.0801 4.65126 11.5011 4.33063 11.9428 4.49655C12.1904 4.58937 12.3525 4.81878 12.3563 5.0994C12.3611 5.47232 12.3579 5.8447 12.3579 6.21761C12.3579 8.78055 12.3579 11.3435 12.3579 13.9064C12.3579 14.4511 12.1263 14.6816 11.58 14.6821C10.8145 14.6821 10.0494 14.6773 9.28385 14.6848C9.05178 14.6869 8.86025 14.6181 8.6762 14.4794C7.11358 13.3025 5.54882 12.1288 3.98033 10.9599C3.89284 10.8948 3.7664 10.8527 3.65703 10.8516C2.95815 10.842 2.25926 10.8479 1.56038 10.8463C1.11331 10.8452 0.85456 10.587 0.85456 10.1394C0.853493 8.48179 0.853493 6.8242 0.85456 5.16662C0.85456 4.70568 1.10904 4.45547 1.57478 4.45493C2.2534 4.45387 2.93254 4.4496 3.61115 4.45813C3.77494 4.46027 3.89978 4.41225 4.02835 4.31516C5.5691 3.15373 7.11464 1.99923 8.65486 0.836739C8.85759 0.684158 9.06565 0.612135 9.31853 0.615336C10.0905 0.624939 10.8625 0.618004 11.6345 0.619071C12.1077 0.619071 12.3573 0.871416 12.3584 1.34836C12.3595 1.93415 12.3595 2.51993 12.3584 3.10571C12.3573 3.52664 12.0917 3.81687 11.7139 3.8142C11.3448 3.811 11.0828 3.52291 11.0812 3.11425C11.0796 2.71626 11.0812 2.31827 11.0812 1.89734H11.0807Z" fill="#7C8792"/>
<path d="M14.3525 7.65161C14.1157 7.42114 13.9039 7.22054 13.6979 7.01408C13.4115 6.72652 13.3938 6.3344 13.6499 6.07245C13.9108 5.80623 14.3088 5.82437 14.606 6.1178C14.805 6.31412 15.0023 6.51152 15.2008 6.70785C15.2093 6.71585 15.2243 6.71745 15.2712 6.73559C15.4628 6.53606 15.6607 6.32213 15.8666 6.1162C16.16 5.8217 16.5612 5.8073 16.8216 6.07512C17.0761 6.3376 17.0574 6.72865 16.7688 7.01674C16.5628 7.22267 16.3489 7.42114 16.1078 7.65267C16.3436 7.87674 16.5586 8.07361 16.765 8.27847C17.0611 8.57296 17.0777 8.97309 16.8125 9.23397C16.5463 9.49592 16.1568 9.47137 15.8565 9.17368C15.6628 8.98162 15.4702 8.7885 15.2766 8.59644C15.2675 8.5879 15.2542 8.5831 15.2109 8.55856C15.0157 8.76022 14.8156 8.97095 14.6102 9.17635C14.3131 9.47351 13.9183 9.49378 13.6547 9.2297C13.3906 8.96508 13.4115 8.57189 13.7097 8.27474C13.9119 8.07307 14.1194 7.87674 14.3531 7.65054L14.3525 7.65161Z" fill="#7C8792"/>
</svg>
