<svg width="11" height="8" viewBox="0 0 11 8" fill="none" xmlns="http://www.w3.org/2000/svg">
<path d="M10.9998 5.90239C10.9931 5.9143 10.9836 5.92535 10.98 5.93813C10.8756 6.30676 10.6136 6.5071 10.2305 6.50732C9.25656 6.50797 8.28236 6.50732 7.30838 6.50732C7.26597 6.50732 7.22355 6.50732 7.18028 6.50732C7.21817 6.68405 7.26123 6.85104 7.28879 7.02063C7.36974 7.52094 6.98673 7.9944 6.48273 7.99591C4.59548 8.00133 2.70823 8.00133 0.821188 7.99613C0.308146 7.99483 -0.0871313 7.51011 0.0166397 7.00373C0.0775675 6.70636 0.158733 6.4066 0.27822 6.12872C0.678664 5.19784 1.35533 4.53855 2.28776 4.14761C2.30972 4.1383 2.33146 4.12812 2.36505 4.11296C1.72585 3.6029 1.40635 2.94664 1.44554 2.13509C1.47546 1.51436 1.72886 0.986973 2.18937 0.569395C3.08671 -0.244535 4.43207 -0.177177 5.25944 0.715807C6.12535 1.65016 6.08078 3.24098 4.94877 4.10603C5.18818 4.2297 5.42737 4.35337 5.67711 4.48245C5.99703 4.01203 6.42137 3.64708 6.96305 3.40754C6.49501 2.97567 6.26916 2.44849 6.32751 1.81498C6.3738 1.31099 6.59899 0.894924 6.9863 0.571561C7.69031 -0.016037 8.73383 0.0508881 9.37347 0.71689C10.0516 1.42318 10.0949 2.64407 9.25204 3.39866C9.41609 3.49547 9.58768 3.58254 9.74398 3.69191C10.386 4.14133 10.7897 4.75449 10.9623 5.52185C10.9716 5.56278 10.9873 5.60242 11 5.6427V5.90217L10.9998 5.90239ZM3.64927 7.3507C4.51561 7.3507 5.38194 7.3507 6.24828 7.3507C6.31997 7.3507 6.39166 7.35395 6.46293 7.3494C6.58823 7.34139 6.67219 7.23656 6.65411 7.11181C6.64485 7.04791 6.62935 6.98467 6.61449 6.92186C6.22374 5.26021 4.62605 4.24616 2.96916 4.60786C1.83844 4.85476 0.892019 5.84868 0.660795 7.01478C0.617952 7.23071 0.696964 7.3572 0.943043 7.3546C1.84512 7.34485 2.74719 7.3507 3.64927 7.3507ZM3.6497 3.88034C4.51022 3.88143 5.21552 3.15543 5.2166 2.26808C5.21767 1.38029 4.51496 0.651914 3.6553 0.649748C2.79327 0.647582 2.08711 1.37011 2.08409 2.25725C2.08086 3.15175 2.78293 3.87948 3.64992 3.88056L3.6497 3.88034ZM6.17357 4.90025C6.45991 5.17878 6.69221 5.48286 6.88059 5.82117C6.89394 5.845 6.94604 5.85756 6.98006 5.85756C8.05803 5.85951 9.13578 5.85929 10.2138 5.85886C10.3427 5.85886 10.3677 5.82745 10.3423 5.70357C10.1044 4.5418 9.12416 3.76339 7.94737 3.83096C7.18502 3.87493 6.60459 4.25699 6.17336 4.89981L6.17357 4.90025ZM8.10496 0.820418C7.47631 0.818036 6.96348 1.34304 6.96133 1.99107C6.95918 2.63757 7.46963 3.17016 8.09549 3.17471C8.71898 3.17904 9.23654 2.64754 9.23826 2.00081C9.23998 1.35062 8.73319 0.822801 8.10496 0.820635V0.820418Z" fill="#5067F2"/>
</svg>
