<svg width="14" height="15" viewBox="0 0 14 15" fill="none" xmlns="http://www.w3.org/2000/svg">
<path d="M13.4841 10.0221C13.226 9.76846 12.9701 9.51259 12.7142 9.25447C12.3887 8.92902 12.0655 8.60356 11.7356 8.2826C11.4348 7.99081 11.1049 7.84492 10.7525 7.84492C10.5662 7.84492 10.3777 7.88756 10.1869 7.97061C9.95345 8.07386 9.74696 8.24893 9.59209 8.39033C9.33621 8.62601 9.08932 8.87964 8.8514 9.12429L8.68755 9.29263C8.68755 9.29263 8.67408 9.30609 8.66959 9.30609C8.66735 9.30609 8.6651 9.30609 8.6651 9.3016C8.5843 9.25447 8.5035 9.21182 8.4227 9.16693C8.30598 9.10409 8.18927 9.039 8.07704 8.96717C7.42164 8.54969 6.81338 8.03345 6.21185 7.38928C5.72928 6.8708 5.18611 6.2356 4.81577 5.46349C4.8008 5.43356 4.80754 5.40513 4.83597 5.3782L5.03348 5.18517C5.31854 4.90685 5.61257 4.61731 5.88415 4.3143C6.40488 3.73746 6.40264 2.96984 5.87742 2.40422C5.54972 2.05183 5.20631 1.70842 4.87412 1.37623C4.67661 1.17872 4.47684 0.978954 4.28157 0.779192C4.00101 0.48965 3.65984 0.175419 3.14809 0.0766602H2.77775C2.42536 0.150729 2.12011 0.312334 1.87097 0.556986C1.47369 0.947531 1.11008 1.31114 0.762176 1.66802C0.353675 2.08101 0.138202 2.61071 0.115757 3.23693C0.0955561 3.82948 0.198804 4.44672 0.432233 5.12681C1.10334 7.07954 2.28396 8.86392 4.03916 10.5787C5.07164 11.5888 6.27919 12.4417 7.62814 13.1128C8.71897 13.656 9.59658 13.9298 10.4719 14.0016C10.5707 14.0106 10.6672 14.0128 10.7615 14.0128C11.3855 14.0128 11.8815 13.8378 12.281 13.4764C12.7479 13.0544 13.1811 12.5988 13.5783 12.1678C14.1754 11.5259 14.135 10.6618 13.4796 10.0176L13.4841 10.0221ZM1.1415 2.77007C1.21781 2.59051 1.34126 2.40197 1.50062 2.22915C1.75874 1.94634 2.0393 1.67251 2.31089 1.40766L2.48821 1.23483C2.65654 1.06873 2.80244 0.992421 2.95058 0.992421C3.01791 0.992421 3.08525 1.00813 3.15707 1.03956C3.24012 1.07771 3.32765 1.14056 3.41519 1.22809C4.09303 1.89696 4.60703 2.41095 5.08062 2.89352C5.42178 3.24142 5.42178 3.48832 5.08062 3.83622C4.75067 4.17289 4.40951 4.50284 4.11772 4.7834C3.799 5.0909 3.74962 5.34453 3.92918 5.74854C4.34891 6.68226 5.00206 7.44764 5.52279 8.01101C6.23654 8.78088 6.9705 9.38914 7.7673 9.86947C7.9491 9.97945 8.13989 10.076 8.32394 10.1702L8.36209 10.1904C8.48779 10.2555 8.6045 10.2869 8.72122 10.2869C8.89853 10.2869 9.06912 10.2084 9.22399 10.0558C9.40579 9.8762 9.58535 9.69664 9.76716 9.51483C9.91754 9.36445 10.0702 9.21182 10.2205 9.06144C10.2789 9.00308 10.3418 8.94248 10.4068 8.89535C10.5146 8.81903 10.6246 8.77863 10.7323 8.77863C10.8535 8.77863 10.968 8.83026 11.069 8.92901C11.7895 9.63604 12.373 10.2196 12.9027 10.765C13.1451 11.0142 13.1474 11.2858 12.9072 11.5461C12.5234 11.9614 12.1329 12.3631 11.7446 12.7402C11.4954 12.9826 11.1767 13.0993 10.7682 13.0993H10.7188C10.0612 13.0769 9.38335 12.9063 8.6449 12.5786C5.846 11.3396 3.62168 9.29487 2.03706 6.50045C1.5702 5.67672 1.2627 4.88216 1.09885 4.07189C1.01132 3.64543 0.957449 3.1898 1.13477 2.76783L1.1415 2.77007Z" fill="#EDEFF0"/>
</svg>
