<svg width="22" height="14" viewBox="0 0 22 14" fill="none" xmlns="http://www.w3.org/2000/svg">
<path d="M0.00224499 2.20932C0.098759 1.80979 0.217718 1.42374 0.48257 1.09379C0.967385 0.490021 1.59136 0.184767 2.36123 0.184767C6.14772 0.182523 9.93421 0.178034 13.7185 0.187012C15.0809 0.191501 16.0483 1.17235 16.0707 2.53702C16.0774 2.98367 16.0707 3.42809 16.0707 3.87474C16.0707 3.94432 16.0774 4.01166 16.0819 4.11266C16.1717 4.06553 16.239 4.03186 16.3041 3.99595C17.8237 3.16548 19.3454 2.33725 20.865 1.50678C20.9076 1.48209 20.9525 1.45965 20.9952 1.4372C21.4037 1.22398 21.7403 1.42598 21.7426 1.88611C21.7426 3.40115 21.7426 4.9162 21.7426 6.429C21.7426 8.33235 21.7291 10.2379 21.7516 12.1413C21.7583 12.6845 21.3498 12.8797 20.9099 12.6306C19.3948 11.7754 17.8618 10.9562 16.3356 10.1235C16.2615 10.0831 16.1874 10.0472 16.0819 9.99104C16.0774 10.0943 16.0707 10.1684 16.0707 10.2447C16.0662 10.7474 16.0797 11.2502 16.055 11.7507C15.9989 12.8909 15.027 13.8381 13.8846 13.8853C13.7005 13.892 13.5165 13.8898 13.3324 13.8898C9.72996 13.8898 6.12752 13.8651 2.52732 13.9032C1.20979 13.9167 0.172828 13.0324 0.0246898 11.9258C0.0246898 11.9146 0.00673354 11.9056 0 11.8944C0 8.66678 0 5.43917 0 2.20932H0.00224499ZM8.03086 12.965C9.91401 12.965 11.7949 12.9673 13.6781 12.965C14.5759 12.965 15.1549 12.3859 15.1549 11.4904C15.1594 8.52537 15.1572 5.55813 15.1549 2.59313C15.1549 1.69757 14.5691 1.10951 13.6825 1.10951C9.9185 1.10726 6.15221 1.10726 2.38816 1.10951C1.51505 1.10951 0.931474 1.68635 0.929229 2.55722C0.92474 5.54466 0.92474 8.53211 0.933718 11.5196C0.933718 11.7462 0.980852 11.9909 1.07737 12.1929C1.34446 12.7451 1.81806 12.9718 2.42632 12.9695C4.29375 12.9628 6.16343 12.9695 8.03086 12.9695V12.965ZM20.8089 11.5038V2.60211C20.7483 2.62904 20.7034 2.647 20.663 2.67169C19.1794 3.47971 17.698 4.29222 16.2121 5.09576C16.0864 5.16309 16.0707 5.24839 16.0707 5.36959C16.0729 6.48736 16.0752 7.60512 16.0707 8.72513C16.0707 8.88001 16.1178 8.96305 16.2548 9.03712C17.7092 9.82495 19.1592 10.6195 20.6114 11.4118C20.672 11.4455 20.7348 11.4724 20.8089 11.5083V11.5038Z" fill="#EDEFF0"/>
</svg>
