<svg width="16" height="17" viewBox="0 0 16 17" fill="none" xmlns="http://www.w3.org/2000/svg">
<path d="M11.9132 4.54465C11.9113 7.05044 9.86607 9.09406 7.36301 9.0912C4.86185 9.08835 2.81475 7.03332 2.82425 4.53324C2.83375 2.03126 4.8647 0.00285587 7.36491 2.98473e-06C9.87081 -0.0028499 11.916 2.03982 11.9132 4.54465ZM7.36681 1.18585C5.5173 1.1868 4.00691 2.69883 4.00881 4.5456C4.01166 6.39332 5.5249 7.90535 7.3706 7.9044C9.21631 7.9044 10.7286 6.38857 10.7286 4.54085C10.7286 2.69313 9.21631 1.18395 7.36681 1.1849V1.18585Z" fill="#00FFCF"/>
<path d="M15.8848 12.3178C15.862 12.7866 15.6691 13.1708 15.3585 13.4866C14.381 14.4822 13.3941 15.4684 12.4033 16.4517C12.1791 16.6751 11.8903 16.7892 11.5769 16.8349C11.2349 16.8853 10.8929 16.9309 10.5519 16.9813C9.76724 17.0974 9.18969 16.4868 9.30178 15.6557C9.34737 15.3191 9.39297 14.9824 9.44617 14.6477C9.49651 14.3348 9.63235 14.0571 9.85558 13.8327C10.8093 12.8741 11.7611 11.9137 12.7253 10.9655C13.2288 10.471 13.8225 10.2447 14.5131 10.5386C15.0745 10.7773 15.482 11.1928 15.7299 11.7501C15.8088 11.927 15.8344 12.1267 15.8838 12.3159L15.8848 12.3178ZM10.4797 15.7964C10.7789 15.7546 11.0553 15.7318 11.3232 15.6728C11.4591 15.6433 11.6035 15.572 11.7032 15.4769C12.106 15.0946 12.4916 14.6943 12.8859 14.3025C13.0511 14.138 13.2221 13.9792 13.3903 13.8175L13.282 13.8793C12.9837 13.5826 12.6864 13.2859 12.3843 12.9863C11.877 13.4923 11.2862 14.079 10.7001 14.6695C10.6564 14.7133 10.6326 14.7875 10.6222 14.8512C10.5718 15.1555 10.53 15.4607 10.4797 15.7974V15.7964ZM13.9593 11.596C13.7018 11.6236 13.5717 11.7881 13.4349 11.9336C13.3998 11.9717 13.3827 12.0791 13.4102 12.1153C13.566 12.3188 13.7123 12.5432 13.9099 12.6973C14.2946 12.9968 14.2224 12.994 14.5454 12.6126C14.723 12.4025 14.7183 12.2465 14.5406 12.0354C14.4342 11.9099 14.3098 11.7967 14.1806 11.694C14.1122 11.6398 14.0172 11.6208 13.9602 11.596H13.9593Z" fill="#00FFCF"/>
<path d="M7.39715 10.2495C8.24353 10.2856 9.07187 10.3969 9.87931 10.6451C10.1529 10.7288 10.3068 10.9542 10.2982 11.2309C10.2897 11.4924 10.1158 11.7187 9.85271 11.7758C9.74917 11.7986 9.62948 11.792 9.52688 11.7634C8.54751 11.4867 7.55293 11.3831 6.54221 11.5038C4.706 11.7245 3.12437 12.4358 1.99111 13.9592C1.4658 14.6658 1.19032 15.4674 1.17892 16.3556C1.17512 16.6638 1.01553 16.8882 0.762851 16.9709C0.52347 17.0489 0.247991 16.969 0.112151 16.7465C0.0418563 16.6324 -0.00184031 16.4821 5.95434e-05 16.348C0.0181082 14.8065 0.64981 13.5284 1.73083 12.4643C2.91824 11.2956 4.36783 10.6442 6.00075 10.3903C6.46242 10.318 6.93168 10.2952 7.3981 10.2495H7.39715Z" fill="#00FFCF"/>
</svg>
