<svg width="11" height="16" viewBox="0 0 11 16" fill="none" xmlns="http://www.w3.org/2000/svg">
<path d="M2.20086 8.24688C0.727962 7.8821 -0.0153796 6.66005 0.000240686 5.51058C0.0167798 4.29679 0.835926 3.16661 2.2004 2.84226C2.2004 2.78575 2.2004 2.72419 2.2004 2.66263C2.2004 2.18116 2.19949 1.69969 2.2004 1.21821C2.20132 0.841029 2.42644 0.587888 2.75676 0.590185C3.08019 0.592481 3.2998 0.841029 3.30072 1.20948C3.30209 1.69096 3.30072 2.17243 3.30072 2.6539C3.30072 2.71592 3.30072 2.77794 3.30072 2.83491C4.8802 3.23645 5.50915 4.54028 5.50639 5.55146C5.50364 6.58332 4.83977 7.86511 3.30072 8.25056C3.30072 8.3135 3.30072 8.38149 3.30072 8.44903C3.30072 10.7415 3.30072 13.0336 3.2998 15.3261C3.2998 15.4226 3.2998 15.5236 3.27269 15.6146C3.19781 15.8687 2.94742 16.0262 2.69015 15.9964C2.43241 15.9665 2.23256 15.7621 2.20408 15.4938C2.19719 15.4313 2.2004 15.3679 2.2004 15.305C2.2004 13.0239 2.2004 10.7429 2.2004 8.46235L2.2004 8.24734L2.20086 8.24688ZM4.40149 5.55422C4.40654 4.63492 3.68341 3.89893 2.76871 3.89204C1.84757 3.88515 1.10239 4.62068 1.10009 5.53952C1.0978 6.45009 1.83379 7.18976 2.74528 7.19297C3.66136 7.19619 4.39643 6.46893 4.40103 5.55376L4.40149 5.55422Z" fill="#EDEFF0"/>
<path d="M7.70515 8.34092L7.70515 8.12545C7.70515 5.8504 7.70515 3.57489 7.70515 1.29984C7.70515 1.24241 7.70285 1.18498 7.70653 1.12802C7.72582 0.816988 7.96702 0.585441 8.2661 0.590035C8.56518 0.594169 8.80316 0.831691 8.80454 1.14456C8.80822 2.03859 8.80638 2.93262 8.80638 3.82665C8.80638 5.25958 8.80638 6.69206 8.80638 8.12499C8.80638 8.19344 8.80638 8.26144 8.80638 8.32575C10.2361 8.77553 11.0359 9.69942 10.9987 11.2288C10.9762 12.1435 10.3367 13.3647 8.80638 13.7556C8.80638 14.1227 8.80638 14.4944 8.80638 14.8656C8.80638 15.0549 8.80868 15.2437 8.80546 15.433C8.79995 15.7564 8.56564 15.9976 8.26013 15.9985C7.95278 15.9995 7.71158 15.7628 7.70745 15.438C7.70101 14.9396 7.70561 14.4411 7.70561 13.9422C7.70561 13.8797 7.70561 13.8177 7.70561 13.7455C6.98294 13.5751 6.40545 13.1979 5.9883 12.5924C5.65384 12.1068 5.49028 11.5642 5.5059 10.9739C5.53577 9.87216 6.25384 8.70615 7.70515 8.34092ZM9.90577 11.0575C9.91083 10.1382 9.1877 9.40218 8.27299 9.39529C7.35186 9.38839 6.60668 10.1239 6.60438 11.0428C6.60208 11.9533 7.33807 12.693 8.24956 12.6962C9.16565 12.6994 9.90072 11.9722 9.90531 11.057L9.90577 11.0575Z" fill="#EDEFF0"/>
</svg>
