<svg width="18" height="16" viewBox="0 0 18 16" fill="none" xmlns="http://www.w3.org/2000/svg">
<path d="M0 15.402C0.0943194 15.0431 0.180437 14.6843 0.282958 14.3292C0.38958 13.9629 0.516706 13.6004 0.623328 13.2341C0.639731 13.1743 0.623328 13.107 0.615126 13.0435C0.574118 12.7706 0.508504 12.5015 0.483899 12.2286C0.29116 10.0159 0.746353 7.91531 1.91509 5.96796C3.77277 2.88808 6.60646 0.981841 10.371 0.238035C12.118 -0.105835 13.8731 -0.0684583 15.6201 0.294101C16.0425 0.383806 16.1901 0.62302 16.0589 1.00053C15.3823 2.90677 14.3242 4.62612 12.9874 6.20717C12.852 6.36416 12.688 6.43891 12.4666 6.41649C12.1426 6.38285 11.8186 6.34921 11.4988 6.31557C11.466 6.31557 11.4331 6.31557 11.3798 6.31557C11.5316 6.50245 11.671 6.67065 11.8104 6.83885C12.0032 7.07806 11.9909 7.29859 11.7694 7.51538C9.01775 10.1729 5.76578 12.0978 1.90279 13.1332C1.78387 13.1631 1.72235 13.2154 1.68955 13.3238C1.4804 14.0526 1.25486 14.7778 1.05392 15.5066C0.988303 15.7458 0.87758 15.9178 0.623328 16H0.418286C0.225546 15.9402 0.0984202 15.8169 0.00820168 15.6561C0.00820168 15.5739 0.00820168 15.4879 0.00820168 15.4057L0 15.402ZM14.5949 1.9387C14.5949 1.9387 14.5662 1.91627 14.5539 1.90506C14.5088 1.91253 14.4637 1.91627 14.4227 1.92375C12.7536 2.24893 11.2076 2.8507 9.77641 3.69169C6.3194 5.72127 3.8917 8.53577 2.25956 11.9483C2.24726 11.9782 2.24316 12.0119 2.22676 12.0604C5.53204 11.0475 8.34111 9.36929 10.7565 7.11544C10.4448 6.73793 10.1496 6.37537 9.85022 6.01655C9.70259 5.83714 9.65338 5.65025 9.78871 5.45215C9.91994 5.25779 10.1209 5.20173 10.3628 5.23163C10.9615 5.30265 11.5644 5.36619 12.1631 5.43347C12.2779 5.44842 12.3517 5.42225 12.4173 5.32881C12.8889 4.65602 13.3851 3.99444 13.8362 3.3067C14.1233 2.86565 14.3447 2.39096 14.599 1.93122L14.5949 1.9387ZM1.50501 11.1634C1.53782 11.0998 1.57472 11.0363 1.60753 10.9728C3.14124 8.01623 5.29009 5.5157 8.17708 3.56087C9.70669 2.52552 11.3716 1.73312 13.2047 1.24348C13.4959 1.16499 13.787 1.09771 14.1069 1.01548C7.52914 0.350166 1.53371 5.00737 1.50501 11.1634Z" fill="#00FFCF"/>
<path d="M2.28396 16.0001C2.24629 15.9799 2.20862 15.9632 2.16676 15.943C1.96165 15.8457 1.85701 15.6646 1.90724 15.4901C1.96165 15.2989 2.16257 15.168 2.40535 15.158C2.44721 15.158 2.48488 15.158 2.52674 15.158C5.89635 15.158 9.26178 15.158 12.6314 15.158C12.7193 15.158 12.8072 15.1613 12.8909 15.1814C13.1086 15.2318 13.2342 15.3559 13.2593 15.5337C13.2844 15.7115 13.1881 15.8491 12.9956 15.943C12.9579 15.9632 12.9202 15.9799 12.8784 16.0001H2.28396Z" fill="#00FFCF"/>
<path d="M14.6441 16.0001C14.6021 15.9801 14.5601 15.9634 14.5134 15.9434C14.2894 15.85 14.168 15.6666 14.224 15.4931C14.2847 15.3097 14.4994 15.1663 14.7608 15.163C15.6569 15.1563 16.5531 15.1563 17.4493 15.163C17.7106 15.163 17.9254 15.3064 17.986 15.4931C18.042 15.6632 17.9254 15.8467 17.6966 15.9434C17.6546 15.96 17.6126 15.9801 17.566 16.0001H14.6394H14.6441Z" fill="#00FFCF"/>
</svg>
