<svg width="16" height="19" viewBox="0 0 16 19" fill="none" xmlns="http://www.w3.org/2000/svg">
<path d="M12.4766 6.86326C14.1401 6.86326 15.4888 5.51466 15.4888 3.85106C15.4888 2.18747 14.1401 0.838867 12.4766 0.838867C10.813 0.838867 9.46436 2.18747 9.46436 3.85106C9.46436 5.51466 10.813 6.86326 12.4766 6.86326Z" fill="#EDEFF0"/>
<path d="M14.4201 10.1761C14.1884 9.78263 13.9518 9.39188 13.7315 8.99181C13.5107 8.59064 13.4044 8.15933 13.4164 7.69459C13.4202 7.54717 13.424 7.3992 13.4267 7.25123C13.086 7.36522 12.7218 7.4266 12.3434 7.4266C12.2671 7.4266 12.1907 7.42386 12.1155 7.41893C12.1139 7.46496 12.1122 7.51045 12.11 7.55649C12.0724 8.39828 12.3025 9.1628 12.7201 9.87909C12.9197 10.2211 13.1312 10.5554 13.3269 10.899C14.0417 12.154 13.4387 13.745 12.0877 14.1094C11.6188 14.2355 11.1243 14.2793 10.6385 14.3265C9.58353 14.4289 8.52637 14.509 7.937 14.5588C6.17924 14.5435 4.90182 14.4109 3.62711 14.2404C3.43193 14.2147 3.23456 14.1993 3.0421 14.1604C1.57603 13.8634 0.857448 12.239 1.60602 10.9127C1.84046 10.4967 2.09507 10.0928 2.32624 9.67522C2.67027 9.05429 2.84038 8.39061 2.82511 7.67322C2.81148 7.02434 2.80821 6.37327 2.84474 5.72603C2.96196 3.66539 4.54634 1.87658 6.56143 1.50062C7.64695 1.29785 8.6943 1.46445 9.5819 1.91714C9.85886 1.54173 10.2094 1.22496 10.6123 0.988753C9.03941 -0.000462636 7.02377 -0.235025 5.14607 0.582106C2.95433 1.53625 1.7456 3.27847 1.54223 5.68218C1.48608 6.34751 1.50843 7.02105 1.51988 7.69076C1.52751 8.16975 1.42065 8.61257 1.19166 9.02579C0.990479 9.38969 0.778938 9.74811 0.56249 10.1027C0.247903 10.6184 0.0647128 11.173 0.0123727 11.7775C-0.126656 13.3816 0.919602 14.9326 2.46473 15.3666C2.80875 15.4636 3.17132 15.4987 3.52734 15.548C4.83475 15.7283 6.14653 15.8555 7.41469 15.867C8.8982 15.8577 10.3158 15.6971 11.7322 15.5146C12.1864 15.456 12.6291 15.3617 13.0413 15.1518C14.8448 14.2349 15.474 11.966 14.4201 10.1761Z" fill="#EDEFF0"/>
<path d="M7.4719 18.9115C6.48126 18.8885 5.68143 18.4824 5.08933 17.6757C4.83799 17.3332 4.88106 16.9408 5.18311 16.7128C5.49115 16.4804 5.87989 16.556 6.14268 16.9002C6.85963 17.8379 8.08853 17.8368 8.79894 16.898C9.05192 16.5643 9.44066 16.4832 9.74216 16.7024C10.0513 16.9271 10.0998 17.3337 9.84575 17.6801C9.25855 18.4813 8.46473 18.8852 7.47136 18.9121L7.4719 18.9115Z" fill="#EDEFF0"/>
</svg>
